%FSLAX25Y25*%
%MOIN*%
G70*
G01*
G75*
G04 Layer_Color=65535*
%ADD10R,0.05906X0.00984*%
%ADD11R,0.03500X0.03500*%
%ADD12R,0.03937X0.03150*%
%ADD13R,0.05118X0.03937*%
%ADD14R,0.05906X0.03937*%
%ADD15R,0.03937X0.07087*%
%ADD16R,0.03500X0.03500*%
%ADD17R,0.03937X0.05118*%
%ADD18R,0.05906X0.07087*%
%ADD19R,0.03543X0.03740*%
%ADD20R,0.03543X0.03740*%
%ADD21R,0.00984X0.05906*%
%ADD22R,0.00787X0.04724*%
%ADD23R,0.03150X0.02362*%
%ADD24R,0.05512X0.01969*%
%ADD25R,0.05512X0.05512*%
%ADD26C,0.01969*%
%ADD27C,0.01181*%
%ADD28C,0.03937*%
%ADD29C,0.00787*%
%ADD30C,0.01000*%
%ADD31C,0.05512*%
%ADD32R,0.05512X0.05512*%
%ADD33R,0.05906X0.05906*%
%ADD34C,0.05906*%
%ADD35C,0.05512*%
%ADD36C,0.11024*%
%ADD37C,0.12598*%
%ADD38R,0.05906X0.05906*%
%ADD39O,0.07874X0.15748*%
%ADD40C,0.05906*%
%ADD41O,0.15748X0.07874*%
%ADD42O,0.07874X0.17716*%
%ADD43C,0.03937*%
%ADD44C,0.00591*%
%ADD45C,0.00984*%
%ADD46C,0.00600*%
%ADD47C,0.00598*%
%ADD48C,0.00591*%
%ADD49C,0.00394*%
%ADD50R,0.06000X0.01811*%
%ADD51R,0.02000X0.02500*%
%ADD52R,0.04000X0.02811*%
D27*
X68248Y-285138D02*
X67498Y-284388D01*
X66374Y-284014D01*
X64874D01*
X63750Y-284388D01*
X63000Y-285138D01*
Y-285888D01*
X63375Y-286638D01*
X63750Y-287013D01*
X64499Y-287387D01*
X66749Y-288137D01*
X67498Y-288512D01*
X67873Y-288887D01*
X68248Y-289637D01*
Y-290761D01*
X67498Y-291511D01*
X66374Y-291886D01*
X64874D01*
X63750Y-291511D01*
X63000Y-290761D01*
X71135Y-284014D02*
Y-290386D01*
X71510Y-291511D01*
X72259Y-291886D01*
X73009D01*
X70010Y-286638D02*
X72634D01*
X78632D02*
Y-291886D01*
Y-287762D02*
X77882Y-287013D01*
X77133Y-286638D01*
X76008D01*
X75258Y-287013D01*
X74509Y-287762D01*
X74134Y-288887D01*
Y-289637D01*
X74509Y-290761D01*
X75258Y-291511D01*
X76008Y-291886D01*
X77133D01*
X77882Y-291511D01*
X78632Y-290761D01*
X80731Y-286638D02*
Y-291886D01*
Y-288887D02*
X81106Y-287762D01*
X81856Y-287013D01*
X82606Y-286638D01*
X83731D01*
X85567Y-284014D02*
Y-290386D01*
X85942Y-291511D01*
X86692Y-291886D01*
X87442D01*
X84443Y-286638D02*
X87067D01*
X88566Y-293010D02*
X93814Y-284014D01*
X99588Y-285138D02*
X98838Y-284388D01*
X97713Y-284014D01*
X96214D01*
X95089Y-284388D01*
X94339Y-285138D01*
Y-285888D01*
X94714Y-286638D01*
X95089Y-287013D01*
X95839Y-287387D01*
X98088Y-288137D01*
X98838Y-288512D01*
X99213Y-288887D01*
X99588Y-289637D01*
Y-290761D01*
X98838Y-291511D01*
X97713Y-291886D01*
X96214D01*
X95089Y-291511D01*
X94339Y-290761D01*
X102474Y-284014D02*
Y-290386D01*
X102849Y-291511D01*
X103599Y-291886D01*
X104349D01*
X101349Y-286638D02*
X103974D01*
X107348D02*
X106598Y-287013D01*
X105848Y-287762D01*
X105473Y-288887D01*
Y-289637D01*
X105848Y-290761D01*
X106598Y-291511D01*
X107348Y-291886D01*
X108472D01*
X109222Y-291511D01*
X109972Y-290761D01*
X110346Y-289637D01*
Y-288887D01*
X109972Y-287762D01*
X109222Y-287013D01*
X108472Y-286638D01*
X107348D01*
X112071D02*
Y-294510D01*
Y-287762D02*
X112821Y-287013D01*
X113570Y-286638D01*
X114695D01*
X115445Y-287013D01*
X116194Y-287762D01*
X116569Y-288887D01*
Y-289637D01*
X116194Y-290761D01*
X115445Y-291511D01*
X114695Y-291886D01*
X113570D01*
X112821Y-291511D01*
X112071Y-290761D01*
D29*
X65618Y-223567D02*
Y-217760D01*
X55382Y-223567D02*
Y-217760D01*
X57153D01*
X63846D02*
X65618D01*
X77500Y-96386D02*
X266500D01*
X77500Y-1886D02*
X266500D01*
X77500Y-96386D02*
Y-1886D01*
X266500Y-96386D02*
Y-1886D01*
X48000Y-254162D02*
Y-258886D01*
Y-254162D02*
X50024D01*
X50699Y-254387D01*
X50924Y-254612D01*
X51149Y-255062D01*
Y-255512D01*
X50924Y-255962D01*
X50699Y-256187D01*
X50024Y-256412D01*
X48000D01*
X49575D02*
X51149Y-258886D01*
X52206Y-255062D02*
X52656Y-254837D01*
X53331Y-254162D01*
Y-258886D01*
X47000Y-234162D02*
Y-238886D01*
Y-234162D02*
X49024D01*
X49699Y-234387D01*
X49924Y-234612D01*
X50149Y-235062D01*
Y-235512D01*
X49924Y-235962D01*
X49699Y-236187D01*
X49024Y-236412D01*
X47000D01*
X48575D02*
X50149Y-238886D01*
X51431Y-235287D02*
Y-235062D01*
X51656Y-234612D01*
X51881Y-234387D01*
X52331Y-234162D01*
X53230D01*
X53680Y-234387D01*
X53905Y-234612D01*
X54130Y-235062D01*
Y-235512D01*
X53905Y-235962D01*
X53455Y-236637D01*
X51206Y-238886D01*
X54355D01*
D30*
X53500Y-83886D02*
G03*
X53500Y-83886I-200J0D01*
G01*
Y-57886D02*
G03*
X53500Y-57886I-200J0D01*
G01*
Y-31886D02*
G03*
X53500Y-31886I-200J0D01*
G01*
X138785Y-295028D02*
X138499Y-294457D01*
X137928Y-293885D01*
X137356Y-293600D01*
X136214D01*
X135643Y-293885D01*
X135071Y-294457D01*
X134786Y-295028D01*
X134500Y-295885D01*
Y-297313D01*
X134786Y-298170D01*
X135071Y-298742D01*
X135643Y-299313D01*
X136214Y-299598D01*
X137356D01*
X137928Y-299313D01*
X138499Y-298742D01*
X138785Y-298170D01*
X140470Y-294742D02*
X141042Y-294457D01*
X141898Y-293600D01*
Y-299598D01*
X147726Y-293600D02*
X144869Y-297599D01*
X149154D01*
X147726Y-293600D02*
Y-299598D01*
X38285Y-271430D02*
X37999Y-270858D01*
X37428Y-270287D01*
X36856Y-270001D01*
X35714D01*
X35143Y-270287D01*
X34571Y-270858D01*
X34286Y-271430D01*
X34000Y-272287D01*
Y-273715D01*
X34286Y-274572D01*
X34571Y-275143D01*
X35143Y-275714D01*
X35714Y-276000D01*
X36856D01*
X37428Y-275714D01*
X37999Y-275143D01*
X38285Y-274572D01*
X39970Y-271144D02*
X40541Y-270858D01*
X41398Y-270001D01*
Y-276000D01*
X73308Y-232815D02*
X73023Y-232244D01*
X72452Y-231673D01*
X71880Y-231387D01*
X70737D01*
X70166Y-231673D01*
X69595Y-232244D01*
X69309Y-232815D01*
X69024Y-233672D01*
Y-235101D01*
X69309Y-235958D01*
X69595Y-236529D01*
X70166Y-237100D01*
X70737Y-237386D01*
X71880D01*
X72452Y-237100D01*
X73023Y-236529D01*
X73308Y-235958D01*
X75279Y-232815D02*
Y-232530D01*
X75565Y-231958D01*
X75851Y-231673D01*
X76422Y-231387D01*
X77565D01*
X78136Y-231673D01*
X78422Y-231958D01*
X78707Y-232530D01*
Y-233101D01*
X78422Y-233672D01*
X77850Y-234529D01*
X74994Y-237386D01*
X78993D01*
X240354Y-121065D02*
X240068Y-120494D01*
X239497Y-119923D01*
X238925Y-119637D01*
X237783D01*
X237211Y-119923D01*
X236640Y-120494D01*
X236355Y-121065D01*
X236069Y-121922D01*
Y-123351D01*
X236355Y-124208D01*
X236640Y-124779D01*
X237211Y-125350D01*
X237783Y-125636D01*
X238925D01*
X239497Y-125350D01*
X240068Y-124779D01*
X240354Y-124208D01*
X242610Y-119637D02*
X245753D01*
X244039Y-121922D01*
X244896D01*
X245467Y-122208D01*
X245753Y-122494D01*
X246038Y-123351D01*
Y-123922D01*
X245753Y-124779D01*
X245181Y-125350D01*
X244324Y-125636D01*
X243467D01*
X242610Y-125350D01*
X242325Y-125065D01*
X242039Y-124493D01*
X189285Y-208930D02*
X188999Y-208358D01*
X188428Y-207787D01*
X187856Y-207501D01*
X186714D01*
X186143Y-207787D01*
X185571Y-208358D01*
X185286Y-208930D01*
X185000Y-209787D01*
Y-211215D01*
X185286Y-212072D01*
X185571Y-212643D01*
X186143Y-213214D01*
X186714Y-213500D01*
X187856D01*
X188428Y-213214D01*
X188999Y-212643D01*
X189285Y-212072D01*
X193827Y-207501D02*
X190970Y-211500D01*
X195255D01*
X193827Y-207501D02*
Y-213500D01*
X232785Y-188315D02*
X232499Y-187744D01*
X231928Y-187173D01*
X231357Y-186887D01*
X230214D01*
X229643Y-187173D01*
X229071Y-187744D01*
X228786Y-188315D01*
X228500Y-189172D01*
Y-190601D01*
X228786Y-191458D01*
X229071Y-192029D01*
X229643Y-192600D01*
X230214Y-192886D01*
X231357D01*
X231928Y-192600D01*
X232499Y-192029D01*
X232785Y-191458D01*
X237898Y-186887D02*
X235041D01*
X234756Y-189458D01*
X235041Y-189172D01*
X235898Y-188887D01*
X236755D01*
X237612Y-189172D01*
X238184Y-189744D01*
X238469Y-190601D01*
Y-191172D01*
X238184Y-192029D01*
X237612Y-192600D01*
X236755Y-192886D01*
X235898D01*
X235041Y-192600D01*
X234756Y-192315D01*
X234470Y-191743D01*
X232785Y-161315D02*
X232499Y-160744D01*
X231928Y-160173D01*
X231357Y-159887D01*
X230214D01*
X229643Y-160173D01*
X229071Y-160744D01*
X228786Y-161315D01*
X228500Y-162172D01*
Y-163601D01*
X228786Y-164458D01*
X229071Y-165029D01*
X229643Y-165600D01*
X230214Y-165886D01*
X231357D01*
X231928Y-165600D01*
X232499Y-165029D01*
X232785Y-164458D01*
X237898Y-160744D02*
X237612Y-160173D01*
X236755Y-159887D01*
X236184D01*
X235327Y-160173D01*
X234756Y-161030D01*
X234470Y-162458D01*
Y-163886D01*
X234756Y-165029D01*
X235327Y-165600D01*
X236184Y-165886D01*
X236470D01*
X237327Y-165600D01*
X237898Y-165029D01*
X238184Y-164172D01*
Y-163886D01*
X237898Y-163029D01*
X237327Y-162458D01*
X236470Y-162172D01*
X236184D01*
X235327Y-162458D01*
X234756Y-163029D01*
X234470Y-163886D01*
X232785Y-169815D02*
X232499Y-169244D01*
X231928Y-168673D01*
X231357Y-168387D01*
X230214D01*
X229643Y-168673D01*
X229071Y-169244D01*
X228786Y-169815D01*
X228500Y-170672D01*
Y-172101D01*
X228786Y-172958D01*
X229071Y-173529D01*
X229643Y-174100D01*
X230214Y-174386D01*
X231357D01*
X231928Y-174100D01*
X232499Y-173529D01*
X232785Y-172958D01*
X238469Y-168387D02*
X235613Y-174386D01*
X234470Y-168387D02*
X238469D01*
X232785Y-179079D02*
X232499Y-178508D01*
X231928Y-177937D01*
X231357Y-177651D01*
X230214D01*
X229643Y-177937D01*
X229071Y-178508D01*
X228786Y-179079D01*
X228500Y-179936D01*
Y-181364D01*
X228786Y-182221D01*
X229071Y-182793D01*
X229643Y-183364D01*
X230214Y-183650D01*
X231357D01*
X231928Y-183364D01*
X232499Y-182793D01*
X232785Y-182221D01*
X235898Y-177651D02*
X235041Y-177937D01*
X234756Y-178508D01*
Y-179079D01*
X235041Y-179650D01*
X235613Y-179936D01*
X236755Y-180222D01*
X237612Y-180508D01*
X238184Y-181079D01*
X238469Y-181650D01*
Y-182507D01*
X238184Y-183078D01*
X237898Y-183364D01*
X237041Y-183650D01*
X235898D01*
X235041Y-183364D01*
X234756Y-183078D01*
X234470Y-182507D01*
Y-181650D01*
X234756Y-181079D01*
X235327Y-180508D01*
X236184Y-180222D01*
X237327Y-179936D01*
X237898Y-179650D01*
X238184Y-179079D01*
Y-178508D01*
X237898Y-177937D01*
X237041Y-177651D01*
X235898D01*
X157285Y-236315D02*
X156999Y-235744D01*
X156428Y-235173D01*
X155857Y-234887D01*
X154714D01*
X154143Y-235173D01*
X153571Y-235744D01*
X153286Y-236315D01*
X153000Y-237172D01*
Y-238601D01*
X153286Y-239458D01*
X153571Y-240029D01*
X154143Y-240600D01*
X154714Y-240886D01*
X155857D01*
X156428Y-240600D01*
X156999Y-240029D01*
X157285Y-239458D01*
X162684Y-236887D02*
X162398Y-237744D01*
X161827Y-238315D01*
X160970Y-238601D01*
X160684D01*
X159827Y-238315D01*
X159256Y-237744D01*
X158970Y-236887D01*
Y-236601D01*
X159256Y-235744D01*
X159827Y-235173D01*
X160684Y-234887D01*
X160970D01*
X161827Y-235173D01*
X162398Y-235744D01*
X162684Y-236887D01*
Y-238315D01*
X162398Y-239743D01*
X161827Y-240600D01*
X160970Y-240886D01*
X160398D01*
X159541Y-240600D01*
X159256Y-240029D01*
X186285Y-235815D02*
X185999Y-235244D01*
X185428Y-234673D01*
X184856Y-234387D01*
X183714D01*
X183143Y-234673D01*
X182571Y-235244D01*
X182286Y-235815D01*
X182000Y-236672D01*
Y-238101D01*
X182286Y-238958D01*
X182571Y-239529D01*
X183143Y-240100D01*
X183714Y-240386D01*
X184856D01*
X185428Y-240100D01*
X185999Y-239529D01*
X186285Y-238958D01*
X187970Y-235530D02*
X188541Y-235244D01*
X189398Y-234387D01*
Y-240386D01*
X194083Y-234387D02*
X193226Y-234673D01*
X192655Y-235530D01*
X192369Y-236958D01*
Y-237815D01*
X192655Y-239243D01*
X193226Y-240100D01*
X194083Y-240386D01*
X194654D01*
X195511Y-240100D01*
X196083Y-239243D01*
X196368Y-237815D01*
Y-236958D01*
X196083Y-235530D01*
X195511Y-234673D01*
X194654Y-234387D01*
X194083D01*
X234785Y-301315D02*
X234499Y-300744D01*
X233928Y-300173D01*
X233356Y-299887D01*
X232214D01*
X231643Y-300173D01*
X231071Y-300744D01*
X230786Y-301315D01*
X230500Y-302172D01*
Y-303601D01*
X230786Y-304458D01*
X231071Y-305029D01*
X231643Y-305600D01*
X232214Y-305886D01*
X233356D01*
X233928Y-305600D01*
X234499Y-305029D01*
X234785Y-304458D01*
X236470Y-301030D02*
X237041Y-300744D01*
X237898Y-299887D01*
Y-305886D01*
X241441Y-299887D02*
X244583D01*
X242869Y-302172D01*
X243726D01*
X244297Y-302458D01*
X244583Y-302744D01*
X244868Y-303601D01*
Y-304172D01*
X244583Y-305029D01*
X244011Y-305600D01*
X243154Y-305886D01*
X242298D01*
X241441Y-305600D01*
X241155Y-305314D01*
X240869Y-304743D01*
X7285Y-172815D02*
X6999Y-172244D01*
X6428Y-171673D01*
X5856Y-171387D01*
X4714D01*
X4143Y-171673D01*
X3571Y-172244D01*
X3286Y-172815D01*
X3000Y-173672D01*
Y-175101D01*
X3286Y-175958D01*
X3571Y-176529D01*
X4143Y-177100D01*
X4714Y-177386D01*
X5856D01*
X6428Y-177100D01*
X6999Y-176529D01*
X7285Y-175958D01*
X8970Y-171387D02*
Y-177386D01*
Y-171387D02*
X12969Y-177386D01*
Y-171387D02*
Y-177386D01*
X14626Y-172530D02*
X15197Y-172244D01*
X16054Y-171387D01*
Y-177386D01*
X57500Y-141387D02*
Y-147386D01*
Y-141387D02*
X59500D01*
X60356Y-141673D01*
X60928Y-142244D01*
X61213Y-142815D01*
X61499Y-143672D01*
Y-145101D01*
X61213Y-145958D01*
X60928Y-146529D01*
X60356Y-147100D01*
X59500Y-147386D01*
X57500D01*
X62842Y-142530D02*
X63413Y-142244D01*
X64270Y-141387D01*
Y-147386D01*
X32250Y-211539D02*
Y-217537D01*
Y-211539D02*
X34250D01*
X35107Y-211824D01*
X35678Y-212396D01*
X35963Y-212967D01*
X36249Y-213824D01*
Y-215252D01*
X35963Y-216109D01*
X35678Y-216680D01*
X35107Y-217252D01*
X34250Y-217537D01*
X32250D01*
X37877Y-212967D02*
Y-212681D01*
X38163Y-212110D01*
X38449Y-211824D01*
X39020Y-211539D01*
X40163D01*
X40734Y-211824D01*
X41019Y-212110D01*
X41305Y-212681D01*
Y-213253D01*
X41019Y-213824D01*
X40448Y-214681D01*
X37592Y-217537D01*
X41591D01*
X328685Y-215163D02*
Y-221161D01*
Y-215163D02*
X330685D01*
X331542Y-215448D01*
X332113Y-216020D01*
X332399Y-216591D01*
X332684Y-217448D01*
Y-218876D01*
X332399Y-219733D01*
X332113Y-220304D01*
X331542Y-220876D01*
X330685Y-221161D01*
X328685D01*
X334598Y-215163D02*
X337740D01*
X336026Y-217448D01*
X336883D01*
X337455Y-217734D01*
X337740Y-218019D01*
X338026Y-218876D01*
Y-219447D01*
X337740Y-220304D01*
X337169Y-220876D01*
X336312Y-221161D01*
X335455D01*
X334598Y-220876D01*
X334312Y-220590D01*
X334027Y-220019D01*
X329685Y-310663D02*
Y-316661D01*
Y-310663D02*
X331685D01*
X332542Y-310948D01*
X333113Y-311520D01*
X333399Y-312091D01*
X333684Y-312948D01*
Y-314376D01*
X333399Y-315233D01*
X333113Y-315805D01*
X332542Y-316376D01*
X331685Y-316661D01*
X329685D01*
X337883Y-310663D02*
X335027Y-314662D01*
X339312D01*
X337883Y-310663D02*
Y-316661D01*
X25214Y-13387D02*
X21500D01*
Y-19386D01*
X25214D01*
X21500Y-16244D02*
X23785D01*
X26213Y-14530D02*
X26785Y-14244D01*
X27642Y-13387D01*
Y-19386D01*
X378309Y-211001D02*
Y-215572D01*
X378024Y-216429D01*
X377738Y-216714D01*
X377167Y-217000D01*
X376595D01*
X376024Y-216714D01*
X375738Y-216429D01*
X375453Y-215572D01*
Y-215000D01*
X379852Y-212144D02*
X380423Y-211858D01*
X381280Y-211001D01*
Y-217000D01*
X376809Y-276001D02*
Y-280572D01*
X376524Y-281429D01*
X376238Y-281714D01*
X375667Y-282000D01*
X375095D01*
X374524Y-281714D01*
X374238Y-281429D01*
X373953Y-280572D01*
Y-280000D01*
X378638Y-277430D02*
Y-277144D01*
X378923Y-276573D01*
X379209Y-276287D01*
X379780Y-276001D01*
X380923D01*
X381494Y-276287D01*
X381780Y-276573D01*
X382065Y-277144D01*
Y-277715D01*
X381780Y-278287D01*
X381208Y-279144D01*
X378352Y-282000D01*
X382351D01*
X51000Y-21387D02*
Y-27386D01*
X54428D01*
X58798Y-21387D02*
X55085D01*
Y-27386D01*
X58798D01*
X55085Y-24244D02*
X57370D01*
X59798Y-21387D02*
Y-27386D01*
Y-21387D02*
X61798D01*
X62655Y-21673D01*
X63226Y-22244D01*
X63512Y-22815D01*
X63797Y-23672D01*
Y-25101D01*
X63512Y-25958D01*
X63226Y-26529D01*
X62655Y-27100D01*
X61798Y-27386D01*
X59798D01*
X66854Y-21387D02*
X65997Y-21673D01*
X65425Y-22530D01*
X65140Y-23958D01*
Y-24815D01*
X65425Y-26243D01*
X65997Y-27100D01*
X66854Y-27386D01*
X67425D01*
X68282Y-27100D01*
X68853Y-26243D01*
X69139Y-24815D01*
Y-23958D01*
X68853Y-22530D01*
X68282Y-21673D01*
X67425Y-21387D01*
X66854D01*
X52500Y-47887D02*
Y-53886D01*
X55928D01*
X60298Y-47887D02*
X56585D01*
Y-53886D01*
X60298D01*
X56585Y-50744D02*
X58870D01*
X61298Y-47887D02*
Y-53886D01*
Y-47887D02*
X63298D01*
X64155Y-48173D01*
X64726Y-48744D01*
X65012Y-49315D01*
X65297Y-50172D01*
Y-51601D01*
X65012Y-52458D01*
X64726Y-53029D01*
X64155Y-53600D01*
X63298Y-53886D01*
X61298D01*
X66640Y-49030D02*
X67211Y-48744D01*
X68068Y-47887D01*
Y-53886D01*
X52000Y-73387D02*
Y-79386D01*
X55428D01*
X59798Y-73387D02*
X56085D01*
Y-79386D01*
X59798D01*
X56085Y-76244D02*
X58370D01*
X60798Y-73387D02*
Y-79386D01*
Y-73387D02*
X62798D01*
X63655Y-73673D01*
X64226Y-74244D01*
X64512Y-74815D01*
X64797Y-75672D01*
Y-77101D01*
X64512Y-77958D01*
X64226Y-78529D01*
X63655Y-79100D01*
X62798Y-79386D01*
X60798D01*
X66426Y-74815D02*
Y-74530D01*
X66711Y-73958D01*
X66997Y-73673D01*
X67568Y-73387D01*
X68711D01*
X69282Y-73673D01*
X69568Y-73958D01*
X69853Y-74530D01*
Y-75101D01*
X69568Y-75672D01*
X68996Y-76529D01*
X66140Y-79386D01*
X70139D01*
X8000Y-230143D02*
X10571D01*
X11428Y-229858D01*
X11714Y-229572D01*
X11999Y-229001D01*
Y-228144D01*
X11714Y-227573D01*
X11428Y-227287D01*
X10571Y-227001D01*
X8000D01*
Y-233000D01*
X13627Y-228430D02*
Y-228144D01*
X13913Y-227573D01*
X14199Y-227287D01*
X14770Y-227001D01*
X15913D01*
X16484Y-227287D01*
X16770Y-227573D01*
X17055Y-228144D01*
Y-228715D01*
X16770Y-229287D01*
X16198Y-230143D01*
X13342Y-233000D01*
X17341D01*
X225000Y-140387D02*
Y-146386D01*
Y-140387D02*
X227571D01*
X228428Y-140673D01*
X228713Y-140958D01*
X228999Y-141530D01*
Y-142101D01*
X228713Y-142672D01*
X228428Y-142958D01*
X227571Y-143244D01*
X225000D01*
X227000D02*
X228999Y-146386D01*
X230913Y-140387D02*
X234055D01*
X232341Y-142672D01*
X233198D01*
X233769Y-142958D01*
X234055Y-143244D01*
X234341Y-144101D01*
Y-144672D01*
X234055Y-145529D01*
X233484Y-146100D01*
X232627Y-146386D01*
X231770D01*
X230913Y-146100D01*
X230627Y-145815D01*
X230342Y-145243D01*
X39500Y-83387D02*
Y-89386D01*
Y-83387D02*
X42071D01*
X42928Y-83673D01*
X43213Y-83958D01*
X43499Y-84530D01*
Y-85101D01*
X43213Y-85672D01*
X42928Y-85958D01*
X42071Y-86244D01*
X39500D01*
X41500D02*
X43499Y-89386D01*
X47698Y-83387D02*
X44842Y-87386D01*
X49126D01*
X47698Y-83387D02*
Y-89386D01*
X39500Y-57887D02*
Y-63886D01*
Y-57887D02*
X42071D01*
X42928Y-58173D01*
X43213Y-58458D01*
X43499Y-59030D01*
Y-59601D01*
X43213Y-60172D01*
X42928Y-60458D01*
X42071Y-60744D01*
X39500D01*
X41500D02*
X43499Y-63886D01*
X48270Y-57887D02*
X45413D01*
X45127Y-60458D01*
X45413Y-60172D01*
X46270Y-59887D01*
X47127D01*
X47984Y-60172D01*
X48555Y-60744D01*
X48841Y-61601D01*
Y-62172D01*
X48555Y-63029D01*
X47984Y-63600D01*
X47127Y-63886D01*
X46270D01*
X45413Y-63600D01*
X45127Y-63314D01*
X44842Y-62743D01*
X39500Y-35387D02*
Y-41386D01*
Y-35387D02*
X42071D01*
X42928Y-35673D01*
X43213Y-35958D01*
X43499Y-36530D01*
Y-37101D01*
X43213Y-37672D01*
X42928Y-37958D01*
X42071Y-38244D01*
X39500D01*
X41500D02*
X43499Y-41386D01*
X48270Y-36244D02*
X47984Y-35673D01*
X47127Y-35387D01*
X46556D01*
X45699Y-35673D01*
X45127Y-36530D01*
X44842Y-37958D01*
Y-39386D01*
X45127Y-40529D01*
X45699Y-41100D01*
X46556Y-41386D01*
X46841D01*
X47698Y-41100D01*
X48270Y-40529D01*
X48555Y-39672D01*
Y-39386D01*
X48270Y-38529D01*
X47698Y-37958D01*
X46841Y-37672D01*
X46556D01*
X45699Y-37958D01*
X45127Y-38529D01*
X44842Y-39386D01*
X121500Y-294501D02*
Y-300500D01*
Y-294501D02*
X124071D01*
X124928Y-294787D01*
X125214Y-295073D01*
X125499Y-295644D01*
Y-296215D01*
X125214Y-296786D01*
X124928Y-297072D01*
X124071Y-297358D01*
X121500D01*
X123500D02*
X125499Y-300500D01*
X130841Y-294501D02*
X127984Y-300500D01*
X126842Y-294501D02*
X130841D01*
X199000Y-207501D02*
Y-213500D01*
Y-207501D02*
X201571D01*
X202428Y-207787D01*
X202713Y-208073D01*
X202999Y-208644D01*
Y-209215D01*
X202713Y-209787D01*
X202428Y-210072D01*
X201571Y-210358D01*
X199000D01*
X201000D02*
X202999Y-213500D01*
X205770Y-207501D02*
X204913Y-207787D01*
X204627Y-208358D01*
Y-208930D01*
X204913Y-209501D01*
X205484Y-209787D01*
X206627Y-210072D01*
X207484Y-210358D01*
X208055Y-210929D01*
X208341Y-211500D01*
Y-212357D01*
X208055Y-212929D01*
X207769Y-213214D01*
X206913Y-213500D01*
X205770D01*
X204913Y-213214D01*
X204627Y-212929D01*
X204342Y-212357D01*
Y-211500D01*
X204627Y-210929D01*
X205199Y-210358D01*
X206056Y-210072D01*
X207198Y-209787D01*
X207769Y-209501D01*
X208055Y-208930D01*
Y-208358D01*
X207769Y-207787D01*
X206913Y-207501D01*
X205770D01*
X211500D02*
Y-213500D01*
Y-207501D02*
X214071D01*
X214928Y-207787D01*
X215213Y-208073D01*
X215499Y-208644D01*
Y-209215D01*
X215213Y-209787D01*
X214928Y-210072D01*
X214071Y-210358D01*
X211500D01*
X213500D02*
X215499Y-213500D01*
X220555Y-209501D02*
X220269Y-210358D01*
X219698Y-210929D01*
X218841Y-211215D01*
X218556D01*
X217699Y-210929D01*
X217127Y-210358D01*
X216842Y-209501D01*
Y-209215D01*
X217127Y-208358D01*
X217699Y-207787D01*
X218556Y-207501D01*
X218841D01*
X219698Y-207787D01*
X220269Y-208358D01*
X220555Y-209501D01*
Y-210929D01*
X220269Y-212357D01*
X219698Y-213214D01*
X218841Y-213500D01*
X218270D01*
X217413Y-213214D01*
X217127Y-212643D01*
X83500Y-23387D02*
Y-29386D01*
Y-23387D02*
X86071D01*
X86928Y-23673D01*
X87213Y-23958D01*
X87499Y-24530D01*
Y-25101D01*
X87213Y-25672D01*
X86928Y-25958D01*
X86071Y-26244D01*
X83500D01*
X85500D02*
X87499Y-29386D01*
X88842Y-24530D02*
X89413Y-24244D01*
X90270Y-23387D01*
Y-29386D01*
X94955Y-23387D02*
X94098Y-23673D01*
X93526Y-24530D01*
X93241Y-25958D01*
Y-26815D01*
X93526Y-28243D01*
X94098Y-29100D01*
X94955Y-29386D01*
X95526D01*
X96383Y-29100D01*
X96954Y-28243D01*
X97240Y-26815D01*
Y-25958D01*
X96954Y-24530D01*
X96383Y-23673D01*
X95526Y-23387D01*
X94955D01*
X84000Y-48387D02*
Y-54386D01*
Y-48387D02*
X86571D01*
X87428Y-48673D01*
X87713Y-48958D01*
X87999Y-49530D01*
Y-50101D01*
X87713Y-50672D01*
X87428Y-50958D01*
X86571Y-51244D01*
X84000D01*
X86000D02*
X87999Y-54386D01*
X89342Y-49530D02*
X89913Y-49244D01*
X90770Y-48387D01*
Y-54386D01*
X93741Y-49530D02*
X94312Y-49244D01*
X95169Y-48387D01*
Y-54386D01*
X83500Y-73887D02*
Y-79886D01*
Y-73887D02*
X86071D01*
X86928Y-74173D01*
X87213Y-74458D01*
X87499Y-75030D01*
Y-75601D01*
X87213Y-76172D01*
X86928Y-76458D01*
X86071Y-76744D01*
X83500D01*
X85500D02*
X87499Y-79886D01*
X88842Y-75030D02*
X89413Y-74744D01*
X90270Y-73887D01*
Y-79886D01*
X93526Y-75315D02*
Y-75030D01*
X93812Y-74458D01*
X94098Y-74173D01*
X94669Y-73887D01*
X95812D01*
X96383Y-74173D01*
X96669Y-74458D01*
X96954Y-75030D01*
Y-75601D01*
X96669Y-76172D01*
X96097Y-77029D01*
X93241Y-79886D01*
X97240D01*
X291685Y-215163D02*
Y-221161D01*
Y-215163D02*
X294256D01*
X295113Y-215448D01*
X295398Y-215734D01*
X295684Y-216305D01*
Y-216877D01*
X295398Y-217448D01*
X295113Y-217734D01*
X294256Y-218019D01*
X291685D01*
X293685D02*
X295684Y-221161D01*
X297027Y-216305D02*
X297598Y-216020D01*
X298455Y-215163D01*
Y-221161D01*
X301997Y-215163D02*
X305139D01*
X303425Y-217448D01*
X304282D01*
X304854Y-217734D01*
X305139Y-218019D01*
X305425Y-218876D01*
Y-219447D01*
X305139Y-220304D01*
X304568Y-220876D01*
X303711Y-221161D01*
X302854D01*
X301997Y-220876D01*
X301712Y-220590D01*
X301426Y-220019D01*
X292185Y-277663D02*
Y-283661D01*
Y-277663D02*
X294756D01*
X295613Y-277948D01*
X295899Y-278234D01*
X296184Y-278805D01*
Y-279377D01*
X295899Y-279948D01*
X295613Y-280234D01*
X294756Y-280519D01*
X292185D01*
X294185D02*
X296184Y-283661D01*
X297527Y-278805D02*
X298098Y-278520D01*
X298955Y-277663D01*
Y-283661D01*
X304782Y-277663D02*
X301926Y-281662D01*
X306211D01*
X304782Y-277663D02*
Y-283661D01*
X86999Y-323744D02*
X86428Y-323173D01*
X85571Y-322887D01*
X84428D01*
X83571Y-323173D01*
X83000Y-323744D01*
Y-324315D01*
X83286Y-324887D01*
X83571Y-325172D01*
X84143Y-325458D01*
X85856Y-326029D01*
X86428Y-326315D01*
X86713Y-326601D01*
X86999Y-327172D01*
Y-328029D01*
X86428Y-328600D01*
X85571Y-328886D01*
X84428D01*
X83571Y-328600D01*
X83000Y-328029D01*
X88342Y-322887D02*
X89770Y-328886D01*
X91198Y-322887D02*
X89770Y-328886D01*
X91198Y-322887D02*
X92627Y-328886D01*
X94055Y-322887D02*
X92627Y-328886D01*
X95254Y-324030D02*
X95826Y-323744D01*
X96683Y-322887D01*
Y-328886D01*
X247500Y-152387D02*
Y-158386D01*
X245500Y-152387D02*
X249499D01*
X250213D02*
Y-158386D01*
Y-152387D02*
X252784D01*
X253641Y-152673D01*
X253927Y-152958D01*
X254212Y-153530D01*
Y-154101D01*
X253927Y-154672D01*
X253641Y-154958D01*
X252784Y-155244D01*
X250213D01*
X252213D02*
X254212Y-158386D01*
X255555Y-153530D02*
X256126Y-153244D01*
X256983Y-152387D01*
Y-158386D01*
X140050Y-125437D02*
Y-129722D01*
X140336Y-130579D01*
X140907Y-131150D01*
X141764Y-131436D01*
X142335D01*
X143192Y-131150D01*
X143763Y-130579D01*
X144049Y-129722D01*
Y-125437D01*
X145706Y-126580D02*
X146277Y-126294D01*
X147134Y-125437D01*
Y-131436D01*
X68500Y-216387D02*
Y-220672D01*
X68786Y-221529D01*
X69357Y-222100D01*
X70214Y-222386D01*
X70785D01*
X71642Y-222100D01*
X72214Y-221529D01*
X72499Y-220672D01*
Y-216387D01*
X74442Y-217815D02*
Y-217530D01*
X74727Y-216958D01*
X75013Y-216673D01*
X75584Y-216387D01*
X76727D01*
X77298Y-216673D01*
X77584Y-216958D01*
X77869Y-217530D01*
Y-218101D01*
X77584Y-218672D01*
X77012Y-219529D01*
X74156Y-222386D01*
X78155D01*
X169500Y-207887D02*
X173499Y-213886D01*
Y-207887D02*
X169500Y-213886D01*
X174842Y-209030D02*
X175413Y-208744D01*
X176270Y-207887D01*
Y-213886D01*
X282785Y-168430D02*
X282499Y-167858D01*
X281928Y-167287D01*
X281357Y-167001D01*
X280214D01*
X279643Y-167287D01*
X279071Y-167858D01*
X278786Y-168430D01*
X278500Y-169287D01*
Y-170715D01*
X278786Y-171572D01*
X279071Y-172143D01*
X279643Y-172714D01*
X280214Y-173000D01*
X281357D01*
X281928Y-172714D01*
X282499Y-172143D01*
X282785Y-171572D01*
X284470Y-167001D02*
Y-173000D01*
Y-167001D02*
X288469Y-173000D01*
Y-167001D02*
Y-173000D01*
X293554Y-167001D02*
X290697D01*
X290412Y-169572D01*
X290697Y-169287D01*
X291554Y-169001D01*
X292411D01*
X293268Y-169287D01*
X293840Y-169858D01*
X294125Y-170715D01*
Y-171286D01*
X293840Y-172143D01*
X293268Y-172714D01*
X292411Y-173000D01*
X291554D01*
X290697Y-172714D01*
X290412Y-172429D01*
X290126Y-171857D01*
X314470Y-216591D02*
X314184Y-216020D01*
X313613Y-215448D01*
X313042Y-215163D01*
X311899D01*
X311328Y-215448D01*
X310756Y-216020D01*
X310471Y-216591D01*
X310185Y-217448D01*
Y-218876D01*
X310471Y-219733D01*
X310756Y-220304D01*
X311328Y-220876D01*
X311899Y-221161D01*
X313042D01*
X313613Y-220876D01*
X314184Y-220304D01*
X314470Y-219733D01*
X316155Y-216305D02*
X316726Y-216020D01*
X317583Y-215163D01*
Y-221161D01*
X320554Y-216305D02*
X321126Y-216020D01*
X321983Y-215163D01*
Y-221161D01*
X313970Y-279091D02*
X313684Y-278520D01*
X313113Y-277948D01*
X312542Y-277663D01*
X311399D01*
X310828Y-277948D01*
X310256Y-278520D01*
X309971Y-279091D01*
X309685Y-279948D01*
Y-281376D01*
X309971Y-282233D01*
X310256Y-282804D01*
X310828Y-283376D01*
X311399Y-283661D01*
X312542D01*
X313113Y-283376D01*
X313684Y-282804D01*
X313970Y-282233D01*
X315655Y-278805D02*
X316227Y-278520D01*
X317084Y-277663D01*
Y-283661D01*
X320340Y-279091D02*
Y-278805D01*
X320626Y-278234D01*
X320911Y-277948D01*
X321482Y-277663D01*
X322625D01*
X323196Y-277948D01*
X323482Y-278234D01*
X323768Y-278805D01*
Y-279377D01*
X323482Y-279948D01*
X322911Y-280805D01*
X320054Y-283661D01*
X324053D01*
X249785Y-101315D02*
X249499Y-100744D01*
X248928Y-100173D01*
X248357Y-99887D01*
X247214D01*
X246643Y-100173D01*
X246071Y-100744D01*
X245786Y-101315D01*
X245500Y-102172D01*
Y-103601D01*
X245786Y-104458D01*
X246071Y-105029D01*
X246643Y-105600D01*
X247214Y-105886D01*
X248357D01*
X248928Y-105600D01*
X249499Y-105029D01*
X249785Y-104458D01*
X251470Y-99887D02*
Y-105886D01*
Y-99887D02*
X255469Y-105886D01*
Y-99887D02*
Y-105886D01*
X257697Y-99887D02*
X260840D01*
X259126Y-102172D01*
X259983D01*
X260554Y-102458D01*
X260840Y-102744D01*
X261125Y-103601D01*
Y-104172D01*
X260840Y-105029D01*
X260268Y-105600D01*
X259411Y-105886D01*
X258554D01*
X257697Y-105600D01*
X257412Y-105315D01*
X257126Y-104743D01*
X373238Y-115429D02*
X372952Y-114858D01*
X372381Y-114287D01*
X371809Y-114001D01*
X370667D01*
X370095Y-114287D01*
X369524Y-114858D01*
X369238Y-115429D01*
X368953Y-116287D01*
Y-117715D01*
X369238Y-118572D01*
X369524Y-119143D01*
X370095Y-119714D01*
X370667Y-120000D01*
X371809D01*
X372381Y-119714D01*
X372952Y-119143D01*
X373238Y-118572D01*
X374923Y-114001D02*
Y-120000D01*
Y-114001D02*
X378922Y-120000D01*
Y-114001D02*
Y-120000D01*
X383435Y-114001D02*
X380579Y-118000D01*
X384864D01*
X383435Y-114001D02*
Y-120000D01*
X103214Y-103501D02*
X102643Y-103787D01*
X102071Y-104358D01*
X101786Y-104929D01*
X101500Y-105787D01*
Y-107215D01*
X101786Y-108072D01*
X102071Y-108643D01*
X102643Y-109214D01*
X103214Y-109500D01*
X104357D01*
X104928Y-109214D01*
X105499Y-108643D01*
X105785Y-108072D01*
X106070Y-107215D01*
Y-105787D01*
X105785Y-104929D01*
X105499Y-104358D01*
X104928Y-103787D01*
X104357Y-103501D01*
X103214D01*
X104071Y-108357D02*
X105785Y-110071D01*
X107470Y-104644D02*
X108042Y-104358D01*
X108898Y-103501D01*
Y-109500D01*
X83764Y-103637D02*
X83193Y-103923D01*
X82621Y-104494D01*
X82336Y-105065D01*
X82050Y-105922D01*
Y-107351D01*
X82336Y-108208D01*
X82621Y-108779D01*
X83193Y-109350D01*
X83764Y-109636D01*
X84907D01*
X85478Y-109350D01*
X86049Y-108779D01*
X86335Y-108208D01*
X86620Y-107351D01*
Y-105922D01*
X86335Y-105065D01*
X86049Y-104494D01*
X85478Y-103923D01*
X84907Y-103637D01*
X83764D01*
X84621Y-108493D02*
X86335Y-110207D01*
X88306Y-105065D02*
Y-104780D01*
X88591Y-104208D01*
X88877Y-103923D01*
X89448Y-103637D01*
X90591D01*
X91162Y-103923D01*
X91448Y-104208D01*
X91734Y-104780D01*
Y-105351D01*
X91448Y-105922D01*
X90877Y-106779D01*
X88020Y-109636D01*
X92019D01*
X65764Y-103637D02*
X65193Y-103923D01*
X64621Y-104494D01*
X64336Y-105065D01*
X64050Y-105922D01*
Y-107351D01*
X64336Y-108208D01*
X64621Y-108779D01*
X65193Y-109350D01*
X65764Y-109636D01*
X66906D01*
X67478Y-109350D01*
X68049Y-108779D01*
X68335Y-108208D01*
X68621Y-107351D01*
Y-105922D01*
X68335Y-105065D01*
X68049Y-104494D01*
X67478Y-103923D01*
X66906Y-103637D01*
X65764D01*
X66621Y-108493D02*
X68335Y-110207D01*
X70591Y-103637D02*
X73734D01*
X72020Y-105922D01*
X72877D01*
X73448Y-106208D01*
X73734Y-106494D01*
X74019Y-107351D01*
Y-107922D01*
X73734Y-108779D01*
X73162Y-109350D01*
X72305Y-109636D01*
X71448D01*
X70591Y-109350D01*
X70306Y-109064D01*
X70020Y-108493D01*
X297399Y-316663D02*
X296828Y-316948D01*
X296256Y-317520D01*
X295971Y-318091D01*
X295685Y-318948D01*
Y-320376D01*
X295971Y-321233D01*
X296256Y-321804D01*
X296828Y-322376D01*
X297399Y-322661D01*
X298542D01*
X299113Y-322376D01*
X299684Y-321804D01*
X299970Y-321233D01*
X300255Y-320376D01*
Y-318948D01*
X299970Y-318091D01*
X299684Y-317520D01*
X299113Y-316948D01*
X298542Y-316663D01*
X297399D01*
X298256Y-321519D02*
X299970Y-323233D01*
X304512Y-316663D02*
X301655Y-320662D01*
X305940D01*
X304512Y-316663D02*
Y-322661D01*
X296399Y-255163D02*
X295828Y-255448D01*
X295256Y-256020D01*
X294971Y-256591D01*
X294685Y-257448D01*
Y-258876D01*
X294971Y-259733D01*
X295256Y-260304D01*
X295828Y-260876D01*
X296399Y-261161D01*
X297542D01*
X298113Y-260876D01*
X298684Y-260304D01*
X298970Y-259733D01*
X299255Y-258876D01*
Y-257448D01*
X298970Y-256591D01*
X298684Y-256020D01*
X298113Y-255448D01*
X297542Y-255163D01*
X296399D01*
X297256Y-260019D02*
X298970Y-261733D01*
X304083Y-255163D02*
X301226D01*
X300941Y-257734D01*
X301226Y-257448D01*
X302083Y-257162D01*
X302940D01*
X303797Y-257448D01*
X304369Y-258019D01*
X304654Y-258876D01*
Y-259448D01*
X304369Y-260304D01*
X303797Y-260876D01*
X302940Y-261161D01*
X302083D01*
X301226Y-260876D01*
X300941Y-260590D01*
X300655Y-260019D01*
X314185Y-316663D02*
Y-322661D01*
X312185Y-316663D02*
X316184D01*
X316898D02*
Y-322661D01*
Y-316663D02*
X319469D01*
X320326Y-316948D01*
X320612Y-317234D01*
X320898Y-317805D01*
Y-318377D01*
X320612Y-318948D01*
X320326Y-319234D01*
X319469Y-319519D01*
X316898D01*
X318898D02*
X320898Y-322661D01*
X322526Y-318091D02*
Y-317805D01*
X322811Y-317234D01*
X323097Y-316948D01*
X323668Y-316663D01*
X324811D01*
X325382Y-316948D01*
X325668Y-317234D01*
X325954Y-317805D01*
Y-318377D01*
X325668Y-318948D01*
X325097Y-319805D01*
X322240Y-322661D01*
X326239D01*
X313185Y-255163D02*
Y-261161D01*
X311185Y-255163D02*
X315184D01*
X315898D02*
Y-261161D01*
Y-255163D02*
X318469D01*
X319326Y-255448D01*
X319612Y-255734D01*
X319898Y-256305D01*
Y-256877D01*
X319612Y-257448D01*
X319326Y-257734D01*
X318469Y-258019D01*
X315898D01*
X317898D02*
X319898Y-261161D01*
X321811Y-255163D02*
X324954D01*
X323240Y-257448D01*
X324097D01*
X324668Y-257734D01*
X324954Y-258019D01*
X325239Y-258876D01*
Y-259448D01*
X324954Y-260304D01*
X324382Y-260876D01*
X323525Y-261161D01*
X322668D01*
X321811Y-260876D01*
X321526Y-260590D01*
X321240Y-260019D01*
X261000Y-152387D02*
Y-158386D01*
Y-152387D02*
X263571D01*
X264428Y-152673D01*
X264714Y-152958D01*
X264999Y-153530D01*
Y-154101D01*
X264714Y-154672D01*
X264428Y-154958D01*
X263571Y-155244D01*
X261000D01*
X263000D02*
X264999Y-158386D01*
X266342Y-153530D02*
X266913Y-153244D01*
X267770Y-152387D01*
Y-158386D01*
X274169Y-152387D02*
X271312D01*
X271026Y-154958D01*
X271312Y-154672D01*
X272169Y-154387D01*
X273026D01*
X273883Y-154672D01*
X274454Y-155244D01*
X274740Y-156101D01*
Y-156672D01*
X274454Y-157529D01*
X273883Y-158100D01*
X273026Y-158386D01*
X272169D01*
X271312Y-158100D01*
X271026Y-157815D01*
X270741Y-157243D01*
X5499Y-218358D02*
X4928Y-217787D01*
X4071Y-217501D01*
X2928D01*
X2071Y-217787D01*
X1500Y-218358D01*
Y-218930D01*
X1786Y-219501D01*
X2071Y-219787D01*
X2643Y-220072D01*
X4357Y-220643D01*
X4928Y-220929D01*
X5213Y-221215D01*
X5499Y-221786D01*
Y-222643D01*
X4928Y-223214D01*
X4071Y-223500D01*
X2928D01*
X2071Y-223214D01*
X1500Y-222643D01*
X6842Y-217501D02*
X8270Y-223500D01*
X9698Y-217501D02*
X8270Y-223500D01*
X9698Y-217501D02*
X11127Y-223500D01*
X12555Y-217501D02*
X11127Y-223500D01*
X14040Y-218930D02*
Y-218644D01*
X14326Y-218073D01*
X14612Y-217787D01*
X15183Y-217501D01*
X16325D01*
X16897Y-217787D01*
X17182Y-218073D01*
X17468Y-218644D01*
Y-219215D01*
X17182Y-219787D01*
X16611Y-220643D01*
X13755Y-223500D01*
X17754D01*
X314500Y-166501D02*
Y-172500D01*
Y-166501D02*
X317071D01*
X317928Y-166787D01*
X318214Y-167073D01*
X318499Y-167644D01*
Y-168215D01*
X318214Y-168787D01*
X317928Y-169072D01*
X317071Y-169358D01*
X314500D02*
X317071D01*
X317928Y-169643D01*
X318214Y-169929D01*
X318499Y-170500D01*
Y-171357D01*
X318214Y-171929D01*
X317928Y-172214D01*
X317071Y-172500D01*
X314500D01*
X319842Y-166501D02*
Y-172500D01*
X323270D01*
X327640Y-166501D02*
X323926D01*
Y-172500D01*
X327640D01*
X323926Y-169358D02*
X326212D01*
X333353Y-166501D02*
Y-172500D01*
Y-166501D02*
X335638Y-172500D01*
X337924Y-166501D02*
X335638Y-172500D01*
X337924Y-166501D02*
Y-172500D01*
X341066Y-168501D02*
X340494Y-168787D01*
X339923Y-169358D01*
X339637Y-170215D01*
Y-170786D01*
X339923Y-171643D01*
X340494Y-172214D01*
X341066Y-172500D01*
X341923D01*
X342494Y-172214D01*
X343065Y-171643D01*
X343351Y-170786D01*
Y-170215D01*
X343065Y-169358D01*
X342494Y-168787D01*
X341923Y-168501D01*
X341066D01*
X348093Y-166501D02*
Y-172500D01*
Y-169358D02*
X347521Y-168787D01*
X346950Y-168501D01*
X346093D01*
X345522Y-168787D01*
X344951Y-169358D01*
X344665Y-170215D01*
Y-170786D01*
X344951Y-171643D01*
X345522Y-172214D01*
X346093Y-172500D01*
X346950D01*
X347521Y-172214D01*
X348093Y-171643D01*
X349693Y-168501D02*
Y-171357D01*
X349978Y-172214D01*
X350549Y-172500D01*
X351406D01*
X351978Y-172214D01*
X352835Y-171357D01*
Y-168501D02*
Y-172500D01*
X354406Y-166501D02*
Y-172500D01*
X355663Y-170215D02*
X359090D01*
Y-169643D01*
X358805Y-169072D01*
X358519Y-168787D01*
X357948Y-168501D01*
X357091D01*
X356520Y-168787D01*
X355948Y-169358D01*
X355663Y-170215D01*
Y-170786D01*
X355948Y-171643D01*
X356520Y-172214D01*
X357091Y-172500D01*
X357948D01*
X358519Y-172214D01*
X359090Y-171643D01*
X366500Y-290001D02*
X370499D01*
X366500Y-300001D02*
X370499D01*
X368499Y-298002D02*
Y-302000D01*
X366500Y-240001D02*
X370499D01*
X368499Y-238002D02*
Y-242000D01*
X366500Y-230001D02*
X370499D01*
X365000Y-308001D02*
X367285Y-314000D01*
X369570Y-308001D02*
X367285Y-314000D01*
X373769Y-310001D02*
Y-314000D01*
Y-310858D02*
X373198Y-310286D01*
X372627Y-310001D01*
X371770D01*
X371199Y-310286D01*
X370627Y-310858D01*
X370342Y-311715D01*
Y-312286D01*
X370627Y-313143D01*
X371199Y-313714D01*
X371770Y-314000D01*
X372627D01*
X373198Y-313714D01*
X373769Y-313143D01*
X375369Y-308001D02*
Y-314000D01*
X376626Y-310001D02*
X378340Y-314000D01*
X380054Y-310001D02*
X378340Y-314000D01*
X381025Y-311715D02*
X384453D01*
Y-311143D01*
X384167Y-310572D01*
X383882Y-310286D01*
X383310Y-310001D01*
X382453D01*
X381882Y-310286D01*
X381311Y-310858D01*
X381025Y-311715D01*
Y-312286D01*
X381311Y-313143D01*
X381882Y-313714D01*
X382453Y-314000D01*
X383310D01*
X383882Y-313714D01*
X384453Y-313143D01*
X362500Y-252144D02*
X365071D01*
X365928Y-251858D01*
X366213Y-251572D01*
X366499Y-251001D01*
Y-250144D01*
X366213Y-249573D01*
X365928Y-249287D01*
X365071Y-249001D01*
X362500D01*
Y-255000D01*
X367842Y-251001D02*
Y-253857D01*
X368127Y-254714D01*
X368699Y-255000D01*
X369556D01*
X370127Y-254714D01*
X370984Y-253857D01*
Y-251001D02*
Y-255000D01*
X372555Y-251001D02*
Y-255000D01*
Y-252144D02*
X373412Y-251287D01*
X373983Y-251001D01*
X374840D01*
X375412Y-251287D01*
X375697Y-252144D01*
Y-255000D01*
Y-252144D02*
X376554Y-251287D01*
X377125Y-251001D01*
X377982D01*
X378554Y-251287D01*
X378839Y-252144D01*
Y-255000D01*
X380725Y-251001D02*
Y-257000D01*
Y-251858D02*
X381296Y-251287D01*
X381867Y-251001D01*
X382724D01*
X383296Y-251287D01*
X383867Y-251858D01*
X384153Y-252715D01*
Y-253286D01*
X383867Y-254143D01*
X383296Y-254714D01*
X382724Y-255000D01*
X381867D01*
X381296Y-254714D01*
X380725Y-254143D01*
X1500Y-260001D02*
Y-266000D01*
Y-260001D02*
X4071D01*
X4928Y-260287D01*
X5213Y-260573D01*
X5499Y-261144D01*
Y-261715D01*
X5213Y-262286D01*
X4928Y-262572D01*
X4071Y-262858D01*
X1500D02*
X4071D01*
X4928Y-263143D01*
X5213Y-263429D01*
X5499Y-264000D01*
Y-264857D01*
X5213Y-265429D01*
X4928Y-265714D01*
X4071Y-266000D01*
X1500D01*
X10270Y-262001D02*
Y-266000D01*
Y-262858D02*
X9698Y-262286D01*
X9127Y-262001D01*
X8270D01*
X7699Y-262286D01*
X7127Y-262858D01*
X6842Y-263715D01*
Y-264286D01*
X7127Y-265143D01*
X7699Y-265714D01*
X8270Y-266000D01*
X9127D01*
X9698Y-265714D01*
X10270Y-265143D01*
X12726Y-260001D02*
Y-264857D01*
X13012Y-265714D01*
X13583Y-266000D01*
X14154D01*
X11869Y-262001D02*
X13869D01*
X15868Y-260001D02*
Y-264857D01*
X16154Y-265714D01*
X16725Y-266000D01*
X17297D01*
X15011Y-262001D02*
X17011D01*
X18154Y-263715D02*
X21581D01*
Y-263143D01*
X21296Y-262572D01*
X21010Y-262286D01*
X20439Y-262001D01*
X19582D01*
X19011Y-262286D01*
X18439Y-262858D01*
X18154Y-263715D01*
Y-264286D01*
X18439Y-265143D01*
X19011Y-265714D01*
X19582Y-266000D01*
X20439D01*
X21010Y-265714D01*
X21581Y-265143D01*
X22867Y-262001D02*
Y-266000D01*
Y-263715D02*
X23153Y-262858D01*
X23724Y-262286D01*
X24295Y-262001D01*
X25152D01*
X25980D02*
X27694Y-266000D01*
X29408Y-262001D02*
X27694Y-266000D01*
X27123Y-267143D01*
X26552Y-267714D01*
X25980Y-268000D01*
X25695D01*
X25500Y-250501D02*
X29499D01*
X25000Y-241501D02*
X28999D01*
X26999Y-239502D02*
Y-243500D01*
X337785Y-193815D02*
X337499Y-193244D01*
X336928Y-192673D01*
X336356Y-192387D01*
X335214D01*
X334643Y-192673D01*
X334071Y-193244D01*
X333786Y-193815D01*
X333500Y-194672D01*
Y-196101D01*
X333786Y-196958D01*
X334071Y-197529D01*
X334643Y-198100D01*
X335214Y-198386D01*
X336356D01*
X336928Y-198100D01*
X337499Y-197529D01*
X337785Y-196958D01*
Y-196101D01*
X336356D02*
X337785D01*
X339156Y-192387D02*
Y-198386D01*
Y-192387D02*
X343155Y-198386D01*
Y-192387D02*
Y-198386D01*
X344812Y-192387D02*
Y-198386D01*
Y-192387D02*
X346811D01*
X347668Y-192673D01*
X348240Y-193244D01*
X348525Y-193815D01*
X348811Y-194672D01*
Y-196101D01*
X348525Y-196958D01*
X348240Y-197529D01*
X347668Y-198100D01*
X346811Y-198386D01*
X344812D01*
X13970Y-298815D02*
X13684Y-298244D01*
X13113Y-297673D01*
X12542Y-297387D01*
X11399D01*
X10828Y-297673D01*
X10256Y-298244D01*
X9971Y-298815D01*
X9685Y-299672D01*
Y-301101D01*
X9971Y-301958D01*
X10256Y-302529D01*
X10828Y-303100D01*
X11399Y-303386D01*
X12542D01*
X13113Y-303100D01*
X13684Y-302529D01*
X13970Y-301958D01*
Y-301101D01*
X12542D02*
X13970D01*
X15341Y-297387D02*
Y-303386D01*
Y-297387D02*
X19340Y-303386D01*
Y-297387D02*
Y-303386D01*
X20997Y-297387D02*
Y-303386D01*
Y-297387D02*
X22997D01*
X23853Y-297673D01*
X24425Y-298244D01*
X24710Y-298815D01*
X24996Y-299672D01*
Y-301101D01*
X24710Y-301958D01*
X24425Y-302529D01*
X23853Y-303100D01*
X22997Y-303386D01*
X20997D01*
X27428Y-126358D02*
X27142Y-125787D01*
X26285Y-125501D01*
X25714D01*
X24857Y-125787D01*
X24286Y-126644D01*
X24000Y-128072D01*
Y-129500D01*
X24286Y-130643D01*
X24857Y-131214D01*
X25714Y-131500D01*
X26000D01*
X26856Y-131214D01*
X27428Y-130643D01*
X27714Y-129786D01*
Y-129500D01*
X27428Y-128644D01*
X26856Y-128072D01*
X26000Y-127787D01*
X25714D01*
X24857Y-128072D01*
X24286Y-128644D01*
X24000Y-129500D01*
X29028Y-125501D02*
X31313Y-131500D01*
X33598Y-125501D02*
X31313Y-131500D01*
X39083Y-125501D02*
Y-131500D01*
Y-125501D02*
X41082D01*
X41939Y-125787D01*
X42510Y-126358D01*
X42796Y-126929D01*
X43082Y-127787D01*
Y-129215D01*
X42796Y-130072D01*
X42510Y-130643D01*
X41939Y-131214D01*
X41082Y-131500D01*
X39083D01*
X48709Y-126929D02*
X48423Y-126358D01*
X47852Y-125787D01*
X47281Y-125501D01*
X46138D01*
X45567Y-125787D01*
X44995Y-126358D01*
X44710Y-126929D01*
X44424Y-127787D01*
Y-129215D01*
X44710Y-130072D01*
X44995Y-130643D01*
X45567Y-131214D01*
X46138Y-131500D01*
X47281D01*
X47852Y-131214D01*
X48423Y-130643D01*
X48709Y-130072D01*
D44*
X97374Y-308386D02*
G03*
X97374Y-308386I-7874J0D01*
G01*
X152284Y-185071D02*
G03*
X152284Y-185071I-1969J0D01*
G01*
X153858Y-146488D02*
G03*
X153858Y-146488I-2756J0D01*
G01*
X191654Y-184283D02*
G03*
X191654Y-184283I-2756J0D01*
G01*
X332348Y-140310D02*
G03*
X332348Y-140310I-787J0D01*
G01*
X25500Y-286000D02*
G03*
X25500Y-286000I-6000J0D01*
G01*
X347500Y-206886D02*
G03*
X347500Y-206886I-6000J0D01*
G01*
X54500Y-82886D02*
X65500D01*
Y-87886D02*
Y-82886D01*
X54500Y-87886D02*
Y-82886D01*
Y-87886D02*
X65500D01*
X54500Y-56886D02*
X65500D01*
Y-61886D02*
Y-56886D01*
X54500Y-61886D02*
Y-56886D01*
Y-61886D02*
X65500D01*
X54500Y-30886D02*
X65500D01*
Y-35886D02*
Y-30886D01*
X54500Y-35886D02*
Y-30886D01*
Y-35886D02*
X65500D01*
X180677Y-244079D02*
Y-230693D01*
X174378D02*
X180677D01*
X174378Y-244079D02*
Y-230693D01*
Y-244079D02*
X180677D01*
X170835D02*
Y-230693D01*
X164535D02*
X170835D01*
X164535Y-244079D02*
Y-230693D01*
Y-244079D02*
X170835D01*
X79658Y-296575D02*
X99343D01*
X79658Y-320197D02*
X99343D01*
Y-296575D01*
X79658Y-320197D02*
Y-296575D01*
X130000Y-313886D02*
Y-302886D01*
X125000Y-313886D02*
X130000D01*
X125000Y-302886D02*
X130000D01*
X125000Y-313886D02*
Y-302886D01*
X204500Y-227386D02*
Y-216386D01*
X199500Y-227386D02*
X204500D01*
X199500Y-216386D02*
X204500D01*
X199500Y-227386D02*
Y-216386D01*
X187500Y-227386D02*
Y-216386D01*
X192500D01*
X187500Y-227386D02*
X192500D01*
Y-216386D01*
X214862Y-227386D02*
Y-216386D01*
X209862Y-227386D02*
X214862D01*
X209862Y-216386D02*
X214862D01*
X209862Y-227386D02*
Y-216386D01*
X213307Y-186236D02*
X226693D01*
X213307Y-192535D02*
Y-186236D01*
Y-192535D02*
X226693D01*
Y-186236D01*
X213307Y-183299D02*
X226693D01*
Y-177000D01*
X213307D02*
X226693D01*
X213307Y-183299D02*
Y-177000D01*
X240500Y-148886D02*
Y-137886D01*
X235500Y-148886D02*
X240500D01*
X235500Y-137886D02*
X240500D01*
X235500Y-148886D02*
Y-137886D01*
X235319Y-133886D02*
X246319D01*
X235319D02*
Y-128886D01*
X246319Y-133886D02*
Y-128886D01*
X235319D02*
X246319D01*
X213307Y-174535D02*
X226693D01*
Y-168236D01*
X213307D02*
X226693D01*
X213307Y-174535D02*
Y-168236D01*
Y-166535D02*
X226693D01*
Y-160236D01*
X213307D02*
X226693D01*
X213307Y-166535D02*
Y-160236D01*
X45000Y-252886D02*
X56000D01*
X45000D02*
Y-247886D01*
X56000Y-252886D02*
Y-247886D01*
X45000D02*
X56000D01*
X45000Y-244886D02*
X56000D01*
X45000D02*
Y-239886D01*
X56000Y-244886D02*
Y-239886D01*
X45000D02*
X56000D01*
X35500Y-237724D02*
Y-236150D01*
Y-231819D02*
Y-229850D01*
X32744Y-231819D02*
X38256D01*
X32744Y-236150D02*
X35500Y-231819D01*
X32744Y-236150D02*
X38256D01*
X35500Y-231819D02*
X38256Y-236150D01*
X146378Y-187039D02*
Y-143732D01*
X148740Y-141370D01*
X191654D01*
X194016Y-143732D01*
Y-187039D02*
Y-143732D01*
X191654Y-189401D02*
X194016Y-187039D01*
X148740Y-189401D02*
X191654D01*
X146378Y-187039D02*
X148740Y-189401D01*
X61000Y-161024D02*
Y-159449D01*
Y-167323D02*
Y-165354D01*
X58244D02*
X63756D01*
X61000D02*
X63756Y-161024D01*
X58244D02*
X63756D01*
X58244D02*
X61000Y-165354D01*
X333185Y-234799D02*
Y-233224D01*
Y-241098D02*
Y-239130D01*
X330429D02*
X335941D01*
X333185D02*
X335941Y-234799D01*
X330429D02*
X335941D01*
X330429D02*
X333185Y-239130D01*
Y-292799D02*
Y-291224D01*
Y-299098D02*
Y-297130D01*
X330429D02*
X335941D01*
X333185D02*
X335941Y-292799D01*
X330429D02*
X335941D01*
X330429D02*
X333185Y-297130D01*
X234850Y-297079D02*
Y-283693D01*
Y-297079D02*
X241150D01*
Y-283693D01*
X234850D02*
X241150D01*
X292992Y-232311D02*
X306378D01*
Y-226012D01*
X292992D02*
X306378D01*
X292992Y-232311D02*
Y-226012D01*
X292917Y-292311D02*
X306303D01*
Y-286012D01*
X292917D02*
X306303D01*
X292917Y-292311D02*
Y-286012D01*
X306068Y-137160D02*
X309021D01*
X306068Y-121412D02*
X309021D01*
X330674Y-137160D02*
X333627D01*
X330674Y-121412D02*
X333627D01*
X306068Y-137160D02*
Y-121412D01*
X333627Y-137160D02*
Y-121412D01*
X308992Y-232311D02*
X322378D01*
Y-226012D01*
X308992D02*
X322378D01*
X308992Y-232311D02*
Y-226012D01*
X310492Y-292311D02*
X323878D01*
Y-286012D01*
X310492D02*
X323878D01*
X310492Y-292311D02*
Y-286012D01*
X99307Y-112890D02*
X112693D01*
X112693Y-126276D02*
Y-112890D01*
X99307Y-126276D02*
X112693D01*
X99307D02*
Y-112890D01*
X81307D02*
X94693D01*
X94693Y-126276D02*
Y-112890D01*
X81307Y-126276D02*
X94693D01*
X81307D02*
Y-112890D01*
X63307D02*
X76693D01*
X76693Y-126276D02*
Y-112890D01*
X63307Y-126276D02*
X76693D01*
X63307D02*
Y-112890D01*
X292992Y-238665D02*
X306378D01*
X306378Y-252051D02*
Y-238665D01*
X292992Y-252051D02*
X306378D01*
X292992D02*
Y-238665D01*
X294492Y-300665D02*
X307878D01*
X307878Y-314051D02*
Y-300665D01*
X294492Y-314051D02*
X307878D01*
X294492D02*
Y-300665D01*
X245307Y-150276D02*
Y-136890D01*
Y-150276D02*
X258693D01*
X258693D02*
Y-136890D01*
X245307Y-136890D02*
X258693D01*
X324378Y-252051D02*
Y-238665D01*
X310992D02*
X324378D01*
X310992Y-252051D02*
Y-238665D01*
X310992Y-252051D02*
X324378D01*
X325878Y-314051D02*
Y-300665D01*
X312492D02*
X325878D01*
X312492Y-314051D02*
Y-300665D01*
X312492Y-314051D02*
X325878D01*
X269150Y-150079D02*
Y-136693D01*
X262850D02*
X269150D01*
X262850Y-150079D02*
Y-136693D01*
Y-150079D02*
X269150D01*
X55024Y-236886D02*
X66024D01*
X55024D02*
Y-231886D01*
X66024Y-236886D02*
Y-231886D01*
X55024D02*
X66024D01*
X84500Y-30886D02*
X95500D01*
Y-35886D02*
Y-30886D01*
X84500Y-35886D02*
Y-30886D01*
Y-35886D02*
X95500D01*
X84500Y-56886D02*
X95500D01*
Y-61886D02*
Y-56886D01*
X84500Y-61886D02*
Y-56886D01*
Y-61886D02*
X95500D01*
X84500Y-82886D02*
X95500D01*
Y-87886D02*
Y-82886D01*
X84500Y-87886D02*
Y-82886D01*
Y-87886D02*
X95500D01*
X41500Y-102886D02*
Y-91886D01*
X46500D01*
X41500Y-102886D02*
X46500D01*
Y-91886D01*
X41500Y-76886D02*
Y-65886D01*
X46500D01*
X41500Y-76886D02*
X46500D01*
Y-65886D01*
X41500Y-54886D02*
Y-43886D01*
X46500D01*
X41500Y-54886D02*
X46500D01*
Y-43886D01*
X819Y-213386D02*
Y-186614D01*
Y-213425D02*
X11449D01*
X819Y-186614D02*
X11449D01*
Y-199606D02*
Y-194488D01*
Y-213386D02*
Y-210236D01*
Y-207087D02*
Y-205906D01*
Y-188189D02*
Y-186614D01*
X32000Y-267500D02*
X43000D01*
X32000D02*
Y-262500D01*
X43000Y-267500D02*
Y-262500D01*
X32000D02*
X43000D01*
X133500Y-313886D02*
Y-302886D01*
X138500D01*
X133500Y-313886D02*
X138500D01*
Y-302886D01*
D45*
X53315Y-227012D02*
G03*
X53315Y-227012I-492J0D01*
G01*
D46*
X8926Y-14874D02*
Y-14563D01*
X8737Y-14374D02*
X8926Y-14563D01*
X8737Y-14374D02*
X15426D01*
X13926Y-16874D02*
Y-16374D01*
X14426Y-15874D01*
X9426D02*
X14426D01*
X9426D02*
X9926Y-16374D01*
X10961Y-17408D01*
X13392D01*
X13385Y-17415D02*
X13392Y-17408D01*
X12385Y-17415D02*
X13385D01*
X11926Y-17874D02*
X12385Y-17415D01*
X10926Y-17874D02*
X11926D01*
X9926Y-16874D02*
X10926Y-17874D01*
X9926Y-16874D02*
X13926D01*
X12926Y-17874D02*
X13926Y-16874D01*
X10926Y-17874D02*
X12926D01*
X11926Y-19374D02*
X12426Y-18874D01*
X11426D02*
X12426D01*
X10926Y-18374D02*
X11426Y-18874D01*
X10926Y-18374D02*
X11926D01*
X12426Y-18874D01*
Y-17374D01*
X15426Y-14374D01*
Y-14063D01*
X11926Y-19968D02*
X15863Y-14063D01*
X7989D02*
X11926Y-19968D01*
X7989Y-14063D02*
X15863D01*
X35000Y-121436D02*
Y-21436D01*
X1000Y-121436D02*
Y-21436D01*
X35000D01*
X1000Y-121436D02*
X35000D01*
X1000Y-61436D02*
X5000D01*
Y-81436D02*
Y-61436D01*
X1000Y-81436D02*
X5000D01*
X180283Y-224217D02*
Y-215555D01*
X165323D02*
X180283D01*
X165323Y-224217D02*
Y-215555D01*
Y-224217D02*
X180283D01*
X372953Y-245000D02*
Y-225000D01*
Y-235000D02*
X382953D01*
Y-245000D02*
Y-225000D01*
X372953Y-245000D02*
X382953D01*
X372953Y-225000D02*
X382953D01*
X372953Y-305000D02*
Y-285000D01*
Y-295000D02*
X382953D01*
Y-305000D02*
Y-285000D01*
X372953Y-305000D02*
X382953D01*
X372953Y-285000D02*
X382953D01*
X279296Y-5959D02*
X358037D01*
Y-163439D02*
Y-5959D01*
X279296Y-163439D02*
Y-5959D01*
Y-163439D02*
X358037D01*
X372953Y-110000D02*
Y-90000D01*
Y-100000D02*
X382953D01*
Y-110000D02*
Y-90000D01*
X372953Y-110000D02*
X382953D01*
X372953Y-90000D02*
X382953D01*
X-8937Y-169102D02*
X23740D01*
X41063D02*
X48543D01*
Y-160047D01*
X-8937Y-169102D02*
Y-133669D01*
X48543D01*
Y-142724D02*
Y-133669D01*
D47*
X23437Y-258134D02*
Y-234512D01*
X-185D02*
X23437D01*
X-185Y-258134D02*
Y-234512D01*
Y-258134D02*
X23437D01*
D48*
X31563Y-246779D02*
X39437D01*
X31563D02*
Y-220795D01*
X39437D01*
Y-246779D02*
Y-220795D01*
X57063Y-150394D02*
X64937D01*
Y-176378D02*
Y-150394D01*
X57063Y-176378D02*
X64937D01*
X57063D02*
Y-150394D01*
X329248Y-224169D02*
X337122D01*
Y-250154D02*
Y-224169D01*
X329248Y-250154D02*
X337122D01*
X329248D02*
Y-224169D01*
Y-282169D02*
X337122D01*
Y-308154D02*
Y-282169D01*
X329248Y-308154D02*
X337122D01*
X329248D02*
Y-282169D01*
X18064Y-206375D02*
X18251Y-206750D01*
X18626Y-207125D01*
X19001Y-207313D01*
X19563Y-207500D01*
X20501D01*
X21063Y-207313D01*
X21438Y-207125D01*
X21813Y-206750D01*
X22000Y-206375D01*
Y-205626D01*
X21813Y-205251D01*
X21438Y-204876D01*
X21063Y-204688D01*
X20501Y-204501D01*
X19563D01*
X19001Y-204688D01*
X18626Y-204876D01*
X18251Y-205251D01*
X18064Y-205626D01*
Y-206375D01*
Y-203583D02*
X22000D01*
X18064D02*
Y-201146D01*
X19938Y-203583D02*
Y-202083D01*
X18064Y-200696D02*
X22000D01*
X18064D02*
Y-198259D01*
X19938Y-200696D02*
Y-199197D01*
X18064Y-193592D02*
X18251Y-193967D01*
X18626Y-194342D01*
X19001Y-194529D01*
X19563Y-194717D01*
X20501D01*
X21063Y-194529D01*
X21438Y-194342D01*
X21813Y-193967D01*
X22000Y-193592D01*
Y-192842D01*
X21813Y-192468D01*
X21438Y-192093D01*
X21063Y-191905D01*
X20501Y-191718D01*
X19563D01*
X19001Y-191905D01*
X18626Y-192093D01*
X18251Y-192468D01*
X18064Y-192842D01*
Y-193592D01*
Y-190799D02*
X22000D01*
X18064D02*
X22000Y-188175D01*
X18064D02*
X22000D01*
D49*
X303930Y-117194D02*
X304043D01*
X304268Y-117306D01*
X304380Y-117419D01*
X304493Y-117643D01*
Y-118093D01*
X304380Y-118318D01*
X304268Y-118431D01*
X304043Y-118543D01*
X303818D01*
X303593Y-118431D01*
X303256Y-118206D01*
X302131Y-117081D01*
Y-118656D01*
X304493Y-120309D02*
X302918Y-119184D01*
Y-120871D01*
X304493Y-120309D02*
X302131D01*
X304127Y-138060D02*
X304240D01*
X304465Y-138172D01*
X304577Y-138285D01*
X304690Y-138510D01*
Y-138959D01*
X304577Y-139184D01*
X304465Y-139297D01*
X304240Y-139409D01*
X304015D01*
X303790Y-139297D01*
X303453Y-139072D01*
X302328Y-137947D01*
Y-139522D01*
X304690Y-140275D02*
Y-141512D01*
X303790Y-140838D01*
Y-141175D01*
X303678Y-141400D01*
X303565Y-141512D01*
X303228Y-141625D01*
X303003D01*
X302665Y-141512D01*
X302440Y-141287D01*
X302328Y-140950D01*
Y-140613D01*
X302440Y-140275D01*
X302553Y-140163D01*
X302778Y-140050D01*
X336903Y-118965D02*
X337015D01*
X337240Y-119078D01*
X337353Y-119190D01*
X337465Y-119415D01*
Y-119865D01*
X337353Y-120090D01*
X337240Y-120202D01*
X337015Y-120315D01*
X336790D01*
X336565Y-120202D01*
X336228Y-119977D01*
X335104Y-118853D01*
Y-120427D01*
X337212Y-138636D02*
X337325Y-138861D01*
X337662Y-139199D01*
X335300D01*
D50*
X11926Y-14968D02*
D03*
D51*
Y-17124D02*
D03*
D52*
Y-15468D02*
D03*
M02*
