%FSLAX25Y25*%
%MOIN*%
G70*
G01*
G75*
G04 Layer_Color=0*
%ADD10R,0.05906X0.00984*%
%ADD11R,0.03500X0.03500*%
%ADD12R,0.03937X0.03150*%
%ADD13R,0.05118X0.03937*%
%ADD14R,0.05906X0.03937*%
%ADD15R,0.03937X0.07087*%
%ADD16R,0.03500X0.03500*%
%ADD17R,0.03937X0.05118*%
%ADD18R,0.05906X0.07087*%
%ADD19R,0.03543X0.03740*%
%ADD20R,0.03543X0.03740*%
%ADD21R,0.00984X0.05906*%
%ADD22R,0.00787X0.04724*%
%ADD23R,0.03150X0.02362*%
%ADD24R,0.05512X0.01969*%
%ADD25R,0.05512X0.05512*%
%ADD26C,0.01969*%
%ADD27C,0.01181*%
%ADD28C,0.03937*%
%ADD29C,0.00787*%
%ADD30C,0.01000*%
%ADD31C,0.05512*%
%ADD32R,0.05512X0.05512*%
%ADD33R,0.05906X0.05906*%
%ADD34C,0.05906*%
%ADD35C,0.05512*%
%ADD36C,0.11024*%
%ADD37C,0.12598*%
%ADD38R,0.05906X0.05906*%
%ADD39O,0.07874X0.15748*%
%ADD40C,0.05906*%
%ADD41O,0.15748X0.07874*%
%ADD42O,0.07874X0.17716*%
%ADD43C,0.03937*%
%ADD44C,0.00591*%
%ADD45C,0.00984*%
%ADD46C,0.00600*%
%ADD47C,0.00598*%
%ADD48C,0.00591*%
%ADD49C,0.00394*%
%ADD50R,0.06000X0.01811*%
%ADD51R,0.02000X0.02500*%
%ADD52R,0.04000X0.02811*%
%ADD53R,0.06706X0.01784*%
%ADD54R,0.04300X0.04300*%
%ADD55R,0.04737X0.03950*%
%ADD56R,0.05918X0.04737*%
%ADD57R,0.06706X0.04737*%
%ADD58R,0.04737X0.07887*%
%ADD59R,0.04300X0.04300*%
%ADD60R,0.04737X0.05918*%
%ADD61R,0.06706X0.07887*%
%ADD62R,0.04343X0.04540*%
%ADD63R,0.04343X0.04540*%
%ADD64R,0.01784X0.06706*%
%ADD65R,0.01587X0.05524*%
%ADD66R,0.03950X0.03162*%
%ADD67R,0.06312X0.02769*%
%ADD68R,0.06312X0.06312*%
%ADD69C,0.06312*%
%ADD70R,0.06312X0.06312*%
%ADD71R,0.06706X0.06706*%
%ADD72C,0.06706*%
%ADD73C,0.06312*%
%ADD74C,0.11824*%
%ADD75C,0.13398*%
%ADD76R,0.06706X0.06706*%
%ADD77O,0.08674X0.16548*%
%ADD78C,0.06706*%
%ADD79O,0.16548X0.08674*%
%ADD80O,0.08674X0.18517*%
%ADD81C,0.04737*%
%ADD82C,0.00118*%
D10*
X142441Y-168339D02*
D03*
Y-184087D02*
D03*
Y-182118D02*
D03*
Y-170307D02*
D03*
Y-150622D02*
D03*
Y-180150D02*
D03*
Y-160465D02*
D03*
Y-176213D02*
D03*
Y-174244D02*
D03*
Y-178181D02*
D03*
Y-156528D02*
D03*
Y-154559D02*
D03*
Y-158496D02*
D03*
Y-172276D02*
D03*
Y-166370D02*
D03*
Y-164402D02*
D03*
Y-162433D02*
D03*
Y-152591D02*
D03*
Y-148654D02*
D03*
Y-146685D02*
D03*
X197559Y-146685D02*
D03*
Y-148654D02*
D03*
Y-150622D02*
D03*
Y-152591D02*
D03*
Y-154559D02*
D03*
Y-156528D02*
D03*
Y-158496D02*
D03*
Y-160465D02*
D03*
Y-162433D02*
D03*
Y-164402D02*
D03*
Y-166370D02*
D03*
Y-168339D02*
D03*
Y-170307D02*
D03*
Y-172276D02*
D03*
Y-174244D02*
D03*
Y-176213D02*
D03*
Y-178181D02*
D03*
Y-180150D02*
D03*
Y-182118D02*
D03*
Y-184087D02*
D03*
D11*
X57000Y-85386D02*
D03*
X63000D02*
D03*
X57000Y-59386D02*
D03*
X63000D02*
D03*
X57000Y-33386D02*
D03*
X63000D02*
D03*
X237819Y-131386D02*
D03*
X243819D02*
D03*
X47500Y-250386D02*
D03*
X53500D02*
D03*
X47500Y-242386D02*
D03*
X53500D02*
D03*
X57524Y-234386D02*
D03*
X63524D02*
D03*
X93000Y-33386D02*
D03*
X87000D02*
D03*
X93000Y-59386D02*
D03*
X87000D02*
D03*
X93000Y-85386D02*
D03*
X87000D02*
D03*
X34500Y-265000D02*
D03*
X40500D02*
D03*
D12*
X317685Y-249886D02*
D03*
X313945Y-241224D02*
D03*
X319185Y-311886D02*
D03*
X88000Y-115055D02*
D03*
X84260Y-123716D02*
D03*
X91740D02*
D03*
X70000Y-115055D02*
D03*
X66260Y-123716D02*
D03*
X299685Y-240831D02*
D03*
X303425Y-249492D02*
D03*
X301185Y-302831D02*
D03*
X304925Y-311492D02*
D03*
X255740Y-147716D02*
D03*
X248260D02*
D03*
X252000Y-139055D02*
D03*
X73740Y-123716D02*
D03*
X102260D02*
D03*
X106000Y-115055D02*
D03*
X109740Y-123716D02*
D03*
X322925Y-303224D02*
D03*
X315445D02*
D03*
X321425Y-241224D02*
D03*
X297445Y-311492D02*
D03*
X295945Y-249492D02*
D03*
D13*
X177528Y-241323D02*
D03*
Y-233449D02*
D03*
X167685Y-241323D02*
D03*
Y-233449D02*
D03*
X238000Y-286449D02*
D03*
Y-294323D02*
D03*
X266000Y-147323D02*
D03*
Y-139449D02*
D03*
D14*
X109185Y-317244D02*
D03*
Y-299528D02*
D03*
X69815Y-317244D02*
D03*
Y-299528D02*
D03*
D15*
X177528Y-219886D02*
D03*
X167685D02*
D03*
D16*
X127500Y-311386D02*
D03*
Y-305386D02*
D03*
X202000Y-224886D02*
D03*
X190000Y-218886D02*
D03*
Y-224886D02*
D03*
X212362D02*
D03*
X238000Y-146386D02*
D03*
Y-140386D02*
D03*
X212362Y-218886D02*
D03*
X202000D02*
D03*
X44000Y-94386D02*
D03*
Y-100386D02*
D03*
Y-68386D02*
D03*
Y-74386D02*
D03*
Y-46386D02*
D03*
Y-52386D02*
D03*
X136000Y-305386D02*
D03*
Y-311386D02*
D03*
D17*
X223937Y-189386D02*
D03*
X216063D02*
D03*
Y-180150D02*
D03*
X223937D02*
D03*
X216063Y-171386D02*
D03*
X223937D02*
D03*
X216063Y-163386D02*
D03*
X223937D02*
D03*
X295748Y-229161D02*
D03*
X303622D02*
D03*
X295673Y-289161D02*
D03*
X311748Y-229161D02*
D03*
X319622D02*
D03*
X321122Y-289161D02*
D03*
X313248D02*
D03*
X303547D02*
D03*
D18*
X35500Y-242449D02*
D03*
X61000Y-154724D02*
D03*
X333185Y-228500D02*
D03*
Y-245823D02*
D03*
Y-286500D02*
D03*
Y-303823D02*
D03*
X61000Y-172047D02*
D03*
X35500Y-225126D02*
D03*
D19*
X64240Y-227012D02*
D03*
D20*
X56760Y-227012D02*
D03*
X60500Y-217760D02*
D03*
D21*
X151299Y-192945D02*
D03*
X153268D02*
D03*
X155236D02*
D03*
X157205D02*
D03*
X159173D02*
D03*
X161142D02*
D03*
X163110D02*
D03*
X165079D02*
D03*
X167047D02*
D03*
X169016D02*
D03*
X170984D02*
D03*
X172953D02*
D03*
X174921D02*
D03*
X176890D02*
D03*
X178858D02*
D03*
X180827D02*
D03*
X182795D02*
D03*
X184764D02*
D03*
X151299Y-137827D02*
D03*
X153268D02*
D03*
X155236D02*
D03*
X157205D02*
D03*
X159173D02*
D03*
X161142D02*
D03*
X163110D02*
D03*
X165079D02*
D03*
X167047D02*
D03*
X169016D02*
D03*
X170984D02*
D03*
X172953D02*
D03*
X174921D02*
D03*
X176890D02*
D03*
X178858D02*
D03*
X180827D02*
D03*
X182795D02*
D03*
X184764D02*
D03*
X186732D02*
D03*
X188701D02*
D03*
X186732Y-192945D02*
D03*
X188701D02*
D03*
D22*
X311186Y-138341D02*
D03*
X312761D02*
D03*
X314336D02*
D03*
X315911D02*
D03*
X317485D02*
D03*
X320635D02*
D03*
X323785D02*
D03*
X325360D02*
D03*
X326934D02*
D03*
X328509D02*
D03*
X326934Y-120231D02*
D03*
X325360D02*
D03*
X323785D02*
D03*
X319060D02*
D03*
X317485D02*
D03*
X315911D02*
D03*
X314336D02*
D03*
X312761D02*
D03*
X311186D02*
D03*
X322210Y-138341D02*
D03*
X319060D02*
D03*
X328509Y-120231D02*
D03*
X322210D02*
D03*
X320635D02*
D03*
D23*
X2394Y-185039D02*
D03*
X9874D02*
D03*
X2394Y-214961D02*
D03*
X9874D02*
D03*
D24*
X12630Y-208661D02*
D03*
D25*
Y-202756D02*
D03*
Y-191339D02*
D03*
D31*
X13000Y-101436D02*
D03*
Y-91436D02*
D03*
X23000Y-51436D02*
D03*
X13000D02*
D03*
X23000Y-71436D02*
D03*
Y-41436D02*
D03*
X13000Y-71436D02*
D03*
Y-81436D02*
D03*
X23000D02*
D03*
Y-61436D02*
D03*
X13000D02*
D03*
X23000Y-91436D02*
D03*
Y-101436D02*
D03*
D32*
X13000Y-41336D02*
D03*
D33*
X19500Y-242386D02*
D03*
D34*
Y-250260D02*
D03*
X202000Y-91386D02*
D03*
X152000D02*
D03*
X112000D02*
D03*
X122000D02*
D03*
X132000D02*
D03*
X142000D02*
D03*
X162000D02*
D03*
X172000D02*
D03*
X182000D02*
D03*
X192000D02*
D03*
X212000D02*
D03*
X222000D02*
D03*
X232000D02*
D03*
X242000D02*
D03*
X222807Y-295394D02*
D03*
X178516Y-275394D02*
D03*
X222807Y-285394D02*
D03*
Y-275394D02*
D03*
X178516Y-285394D02*
D03*
Y-295394D02*
D03*
D35*
X377953Y-240000D02*
D03*
Y-230000D02*
D03*
Y-300000D02*
D03*
Y-290000D02*
D03*
Y-105000D02*
D03*
Y-95000D02*
D03*
X19500Y-286000D02*
D03*
X341500Y-206886D02*
D03*
D36*
X283824Y-135782D02*
D03*
X355576D02*
D03*
D37*
X254689Y-13697D02*
D03*
X89311D02*
D03*
X7874Y-326772D02*
D03*
X377953D02*
D03*
Y-7874D02*
D03*
X7874D02*
D03*
D38*
X102000Y-91386D02*
D03*
D39*
X20591Y-151386D02*
D03*
D40*
Y-147449D02*
D03*
Y-155323D02*
D03*
X28465Y-171071D02*
D03*
X36339D02*
D03*
X45000Y-146465D02*
D03*
Y-156307D02*
D03*
D41*
X32402Y-171071D02*
D03*
D42*
X45000Y-151386D02*
D03*
M02*
