%FSLAX25Y25*%
%MOIN*%
G70*
G01*
G75*
G04 Layer_Color=2752767*
%ADD10C,0.00600*%
%ADD11C,0.00591*%
%ADD12C,0.00118*%
%ADD13C,0.00667*%
D10*
X20591Y-155323D02*
Y-147449D01*
X28465Y-171071D02*
X36339D01*
X45000Y-156307D02*
Y-146465D01*
D11*
X0Y-334646D02*
X385827D01*
X0D02*
Y0D01*
X385827D01*
Y-334646D02*
Y0D01*
D12*
X-7811Y-130261D02*
Y-131441D01*
Y-130261D02*
X-7361Y-131441D01*
X-6911Y-130261D02*
X-7361Y-131441D01*
X-6911Y-130261D02*
Y-131441D01*
X-6574Y-130991D02*
X-5899D01*
Y-130879D01*
X-5955Y-130767D01*
X-6012Y-130710D01*
X-6124Y-130654D01*
X-6293D01*
X-6405Y-130710D01*
X-6518Y-130823D01*
X-6574Y-130991D01*
Y-131104D01*
X-6518Y-131273D01*
X-6405Y-131385D01*
X-6293Y-131441D01*
X-6124D01*
X-6012Y-131385D01*
X-5899Y-131273D01*
X-4971Y-130823D02*
X-5084Y-130710D01*
X-5196Y-130654D01*
X-5365D01*
X-5477Y-130710D01*
X-5590Y-130823D01*
X-5646Y-130991D01*
Y-131104D01*
X-5590Y-131273D01*
X-5477Y-131385D01*
X-5365Y-131441D01*
X-5196D01*
X-5084Y-131385D01*
X-4971Y-131273D01*
X-4718Y-130261D02*
Y-131441D01*
Y-130879D02*
X-4550Y-130710D01*
X-4437Y-130654D01*
X-4268D01*
X-4156Y-130710D01*
X-4100Y-130879D01*
Y-131441D01*
X-2806Y-130542D02*
Y-130485D01*
X-2750Y-130373D01*
X-2694Y-130317D01*
X-2582Y-130261D01*
X-2357D01*
X-2244Y-130317D01*
X-2188Y-130373D01*
X-2132Y-130485D01*
Y-130598D01*
X-2188Y-130710D01*
X-2300Y-130879D01*
X-2863Y-131441D01*
X-2076D01*
X-883Y-130935D02*
X129D01*
X2249Y-130542D02*
X2193Y-130429D01*
X2080Y-130317D01*
X1968Y-130261D01*
X1743D01*
X1630Y-130317D01*
X1518Y-130429D01*
X1462Y-130542D01*
X1405Y-130710D01*
Y-130991D01*
X1462Y-131160D01*
X1518Y-131273D01*
X1630Y-131385D01*
X1743Y-131441D01*
X1968D01*
X2080Y-131385D01*
X2193Y-131273D01*
X2249Y-131160D01*
X2581Y-130261D02*
Y-131441D01*
X2828Y-130991D02*
X3503D01*
Y-130879D01*
X3446Y-130767D01*
X3390Y-130710D01*
X3278Y-130654D01*
X3109D01*
X2997Y-130710D01*
X2884Y-130823D01*
X2828Y-130991D01*
Y-131104D01*
X2884Y-131273D01*
X2997Y-131385D01*
X3109Y-131441D01*
X3278D01*
X3390Y-131385D01*
X3503Y-131273D01*
X4431Y-130654D02*
Y-131441D01*
Y-130823D02*
X4318Y-130710D01*
X4206Y-130654D01*
X4037D01*
X3924Y-130710D01*
X3812Y-130823D01*
X3756Y-130991D01*
Y-131104D01*
X3812Y-131273D01*
X3924Y-131385D01*
X4037Y-131441D01*
X4206D01*
X4318Y-131385D01*
X4431Y-131273D01*
X4745Y-130654D02*
Y-131441D01*
Y-130991D02*
X4802Y-130823D01*
X4914Y-130710D01*
X5026Y-130654D01*
X5195D01*
X5977D02*
Y-131441D01*
Y-130823D02*
X5864Y-130710D01*
X5752Y-130654D01*
X5583D01*
X5471Y-130710D01*
X5358Y-130823D01*
X5302Y-130991D01*
Y-131104D01*
X5358Y-131273D01*
X5471Y-131385D01*
X5583Y-131441D01*
X5752D01*
X5864Y-131385D01*
X5977Y-131273D01*
X6292Y-130654D02*
Y-131441D01*
Y-130879D02*
X6460Y-130710D01*
X6573Y-130654D01*
X6741D01*
X6854Y-130710D01*
X6910Y-130879D01*
Y-131441D01*
X7894Y-130823D02*
X7782Y-130710D01*
X7669Y-130654D01*
X7501D01*
X7388Y-130710D01*
X7276Y-130823D01*
X7220Y-130991D01*
Y-131104D01*
X7276Y-131273D01*
X7388Y-131385D01*
X7501Y-131441D01*
X7669D01*
X7782Y-131385D01*
X7894Y-131273D01*
X8147Y-130991D02*
X8822D01*
Y-130879D01*
X8766Y-130767D01*
X8710Y-130710D01*
X8597Y-130654D01*
X8428D01*
X8316Y-130710D01*
X8203Y-130823D01*
X8147Y-130991D01*
Y-131104D01*
X8203Y-131273D01*
X8316Y-131385D01*
X8428Y-131441D01*
X8597D01*
X8710Y-131385D01*
X8822Y-131273D01*
X9188Y-131385D02*
X9131Y-131441D01*
X9075Y-131385D01*
X9131Y-131329D01*
X9188Y-131385D01*
Y-131498D01*
X9131Y-131610D01*
X9075Y-131666D01*
X10374Y-130654D02*
Y-131441D01*
Y-130879D02*
X10543Y-130710D01*
X10655Y-130654D01*
X10824D01*
X10936Y-130710D01*
X10993Y-130879D01*
Y-131441D01*
Y-130879D02*
X11161Y-130710D01*
X11274Y-130654D01*
X11442D01*
X11555Y-130710D01*
X11611Y-130879D01*
Y-131441D01*
X12263Y-130654D02*
X12151Y-130710D01*
X12038Y-130823D01*
X11982Y-130991D01*
Y-131104D01*
X12038Y-131273D01*
X12151Y-131385D01*
X12263Y-131441D01*
X12432D01*
X12545Y-131385D01*
X12657Y-131273D01*
X12713Y-131104D01*
Y-130991D01*
X12657Y-130823D01*
X12545Y-130710D01*
X12432Y-130654D01*
X12263D01*
X12972D02*
X13309Y-131441D01*
X13647Y-130654D02*
X13309Y-131441D01*
X13838Y-130991D02*
X14513D01*
Y-130879D01*
X14456Y-130767D01*
X14400Y-130710D01*
X14288Y-130654D01*
X14119D01*
X14007Y-130710D01*
X13894Y-130823D01*
X13838Y-130991D01*
Y-131104D01*
X13894Y-131273D01*
X14007Y-131385D01*
X14119Y-131441D01*
X14288D01*
X14400Y-131385D01*
X14513Y-131273D01*
X15862Y-130261D02*
Y-131216D01*
X15918Y-131385D01*
X16031Y-131441D01*
X16143D01*
X15694Y-130654D02*
X16087D01*
X16593D02*
X16481Y-130710D01*
X16368Y-130823D01*
X16312Y-130991D01*
Y-131104D01*
X16368Y-131273D01*
X16481Y-131385D01*
X16593Y-131441D01*
X16762D01*
X16874Y-131385D01*
X16987Y-131273D01*
X17043Y-131104D01*
Y-130991D01*
X16987Y-130823D01*
X16874Y-130710D01*
X16762Y-130654D01*
X16593D01*
X18342Y-130261D02*
X18398Y-130317D01*
X18454Y-130261D01*
X18398Y-130204D01*
X18342Y-130261D01*
X18398Y-130654D02*
Y-131441D01*
X18663Y-130654D02*
Y-131441D01*
Y-130879D02*
X18831Y-130710D01*
X18944Y-130654D01*
X19112D01*
X19225Y-130710D01*
X19281Y-130879D01*
Y-131441D01*
X19759Y-130261D02*
Y-131216D01*
X19815Y-131385D01*
X19928Y-131441D01*
X20040D01*
X19590Y-130654D02*
X19984D01*
X20209Y-130991D02*
X20884D01*
Y-130879D01*
X20827Y-130767D01*
X20771Y-130710D01*
X20659Y-130654D01*
X20490D01*
X20378Y-130710D01*
X20265Y-130823D01*
X20209Y-130991D01*
Y-131104D01*
X20265Y-131273D01*
X20378Y-131385D01*
X20490Y-131441D01*
X20659D01*
X20771Y-131385D01*
X20884Y-131273D01*
X21137Y-130654D02*
Y-131441D01*
Y-130991D02*
X21193Y-130823D01*
X21305Y-130710D01*
X21418Y-130654D01*
X21587D01*
X21693D02*
Y-131441D01*
Y-130879D02*
X21862Y-130710D01*
X21974Y-130654D01*
X22143D01*
X22256Y-130710D01*
X22312Y-130879D01*
Y-131441D01*
X23296Y-130654D02*
Y-131441D01*
Y-130823D02*
X23183Y-130710D01*
X23071Y-130654D01*
X22902D01*
X22790Y-130710D01*
X22677Y-130823D01*
X22621Y-130991D01*
Y-131104D01*
X22677Y-131273D01*
X22790Y-131385D01*
X22902Y-131441D01*
X23071D01*
X23183Y-131385D01*
X23296Y-131273D01*
X23611Y-130261D02*
Y-131441D01*
X24786Y-130654D02*
Y-131835D01*
Y-130823D02*
X24899Y-130710D01*
X25011Y-130654D01*
X25180D01*
X25292Y-130710D01*
X25405Y-130823D01*
X25461Y-130991D01*
Y-131104D01*
X25405Y-131273D01*
X25292Y-131385D01*
X25180Y-131441D01*
X25011D01*
X24899Y-131385D01*
X24786Y-131273D01*
X25714Y-130261D02*
Y-131441D01*
X26636Y-130654D02*
Y-131441D01*
Y-130823D02*
X26524Y-130710D01*
X26411Y-130654D01*
X26242D01*
X26130Y-130710D01*
X26017Y-130823D01*
X25961Y-130991D01*
Y-131104D01*
X26017Y-131273D01*
X26130Y-131385D01*
X26242Y-131441D01*
X26411D01*
X26524Y-131385D01*
X26636Y-131273D01*
X26951Y-130654D02*
Y-131441D01*
Y-130879D02*
X27120Y-130710D01*
X27232Y-130654D01*
X27401D01*
X27513Y-130710D01*
X27569Y-130879D01*
Y-131441D01*
X27879Y-130991D02*
X28554D01*
Y-130879D01*
X28497Y-130767D01*
X28441Y-130710D01*
X28329Y-130654D01*
X28160D01*
X28047Y-130710D01*
X27935Y-130823D01*
X27879Y-130991D01*
Y-131104D01*
X27935Y-131273D01*
X28047Y-131385D01*
X28160Y-131441D01*
X28329D01*
X28441Y-131385D01*
X28554Y-131273D01*
X29847Y-130261D02*
X29903Y-130317D01*
X29959Y-130261D01*
X29903Y-130204D01*
X29847Y-130261D01*
X29903Y-130654D02*
Y-131441D01*
X30617Y-130261D02*
X30505D01*
X30392Y-130317D01*
X30336Y-130485D01*
Y-131441D01*
X30167Y-130654D02*
X30561D01*
X31714D02*
Y-131835D01*
Y-130823D02*
X31826Y-130710D01*
X31939Y-130654D01*
X32107D01*
X32220Y-130710D01*
X32332Y-130823D01*
X32388Y-130991D01*
Y-131104D01*
X32332Y-131273D01*
X32220Y-131385D01*
X32107Y-131441D01*
X31939D01*
X31826Y-131385D01*
X31714Y-131273D01*
X32642Y-130654D02*
Y-131441D01*
Y-130991D02*
X32698Y-130823D01*
X32810Y-130710D01*
X32923Y-130654D01*
X33091D01*
X33198Y-130991D02*
X33873D01*
Y-130879D01*
X33817Y-130767D01*
X33760Y-130710D01*
X33648Y-130654D01*
X33479D01*
X33367Y-130710D01*
X33254Y-130823D01*
X33198Y-130991D01*
Y-131104D01*
X33254Y-131273D01*
X33367Y-131385D01*
X33479Y-131441D01*
X33648D01*
X33760Y-131385D01*
X33873Y-131273D01*
X34745Y-130823D02*
X34688Y-130710D01*
X34520Y-130654D01*
X34351D01*
X34182Y-130710D01*
X34126Y-130823D01*
X34182Y-130935D01*
X34295Y-130991D01*
X34576Y-131048D01*
X34688Y-131104D01*
X34745Y-131216D01*
Y-131273D01*
X34688Y-131385D01*
X34520Y-131441D01*
X34351D01*
X34182Y-131385D01*
X34126Y-131273D01*
X34992Y-130991D02*
X35667D01*
Y-130879D01*
X35610Y-130767D01*
X35554Y-130710D01*
X35442Y-130654D01*
X35273D01*
X35161Y-130710D01*
X35048Y-130823D01*
X34992Y-130991D01*
Y-131104D01*
X35048Y-131273D01*
X35161Y-131385D01*
X35273Y-131441D01*
X35442D01*
X35554Y-131385D01*
X35667Y-131273D01*
X35920Y-130654D02*
Y-131441D01*
Y-130879D02*
X36088Y-130710D01*
X36201Y-130654D01*
X36370D01*
X36482Y-130710D01*
X36538Y-130879D01*
Y-131441D01*
X37016Y-130261D02*
Y-131216D01*
X37073Y-131385D01*
X37185Y-131441D01*
X37297D01*
X36847Y-130654D02*
X37241D01*
X-7811Y-128292D02*
Y-129473D01*
Y-128292D02*
X-7361Y-129473D01*
X-6911Y-128292D02*
X-7361Y-129473D01*
X-6911Y-128292D02*
Y-129473D01*
X-6574Y-129023D02*
X-5899D01*
Y-128911D01*
X-5955Y-128798D01*
X-6012Y-128742D01*
X-6124Y-128686D01*
X-6293D01*
X-6405Y-128742D01*
X-6518Y-128854D01*
X-6574Y-129023D01*
Y-129135D01*
X-6518Y-129304D01*
X-6405Y-129417D01*
X-6293Y-129473D01*
X-6124D01*
X-6012Y-129417D01*
X-5899Y-129304D01*
X-4971Y-128854D02*
X-5084Y-128742D01*
X-5196Y-128686D01*
X-5365D01*
X-5477Y-128742D01*
X-5590Y-128854D01*
X-5646Y-129023D01*
Y-129135D01*
X-5590Y-129304D01*
X-5477Y-129417D01*
X-5365Y-129473D01*
X-5196D01*
X-5084Y-129417D01*
X-4971Y-129304D01*
X-4718Y-128292D02*
Y-129473D01*
Y-128911D02*
X-4550Y-128742D01*
X-4437Y-128686D01*
X-4268D01*
X-4156Y-128742D01*
X-4100Y-128911D01*
Y-129473D01*
X-2863Y-128517D02*
X-2750Y-128461D01*
X-2582Y-128292D01*
Y-129473D01*
X-1069Y-128967D02*
X-57D01*
X2007Y-128461D02*
X1894Y-128348D01*
X1726Y-128292D01*
X1501D01*
X1332Y-128348D01*
X1220Y-128461D01*
Y-128573D01*
X1276Y-128686D01*
X1332Y-128742D01*
X1445Y-128798D01*
X1782Y-128911D01*
X1894Y-128967D01*
X1951Y-129023D01*
X2007Y-129135D01*
Y-129304D01*
X1894Y-129417D01*
X1726Y-129473D01*
X1501D01*
X1332Y-129417D01*
X1220Y-129304D01*
X2271Y-128292D02*
Y-129473D01*
X2800Y-128686D02*
X2687Y-128742D01*
X2575Y-128854D01*
X2519Y-129023D01*
Y-129135D01*
X2575Y-129304D01*
X2687Y-129417D01*
X2800Y-129473D01*
X2968D01*
X3081Y-129417D01*
X3193Y-129304D01*
X3250Y-129135D01*
Y-129023D01*
X3193Y-128854D01*
X3081Y-128742D01*
X2968Y-128686D01*
X2800D01*
X3677Y-128292D02*
Y-129248D01*
X3733Y-129417D01*
X3846Y-129473D01*
X3958D01*
X3508Y-128686D02*
X3902D01*
X5729Y-128854D02*
X5617Y-128742D01*
X5505Y-128686D01*
X5336D01*
X5223Y-128742D01*
X5111Y-128854D01*
X5055Y-129023D01*
Y-129135D01*
X5111Y-129304D01*
X5223Y-129417D01*
X5336Y-129473D01*
X5505D01*
X5617Y-129417D01*
X5729Y-129304D01*
X5982Y-128686D02*
Y-129248D01*
X6039Y-129417D01*
X6151Y-129473D01*
X6320D01*
X6432Y-129417D01*
X6601Y-129248D01*
Y-128686D02*
Y-129473D01*
X7079Y-128292D02*
Y-129248D01*
X7135Y-129417D01*
X7248Y-129473D01*
X7360D01*
X6910Y-128686D02*
X7304D01*
X7529Y-128967D02*
X8541D01*
X9171Y-128686D02*
X9058Y-128742D01*
X8946Y-128854D01*
X8890Y-129023D01*
Y-129135D01*
X8946Y-129304D01*
X9058Y-129417D01*
X9171Y-129473D01*
X9339D01*
X9452Y-129417D01*
X9564Y-129304D01*
X9621Y-129135D01*
Y-129023D01*
X9564Y-128854D01*
X9452Y-128742D01*
X9339Y-128686D01*
X9171D01*
X9879D02*
Y-129248D01*
X9935Y-129417D01*
X10048Y-129473D01*
X10217D01*
X10329Y-129417D01*
X10498Y-129248D01*
Y-128686D02*
Y-129473D01*
X10976Y-128292D02*
Y-129248D01*
X11032Y-129417D01*
X11144Y-129473D01*
X11257D01*
X10807Y-128686D02*
X11201D01*
X-6911Y-125536D02*
X-7361Y-124355D01*
X-7811Y-125536D01*
X-7642Y-125142D02*
X-7080D01*
X-6017Y-124917D02*
X-6073Y-124805D01*
X-6242Y-124749D01*
X-6411D01*
X-6580Y-124805D01*
X-6636Y-124917D01*
X-6580Y-125030D01*
X-6467Y-125086D01*
X-6186Y-125142D01*
X-6073Y-125198D01*
X-6017Y-125311D01*
Y-125367D01*
X-6073Y-125480D01*
X-6242Y-125536D01*
X-6411D01*
X-6580Y-125480D01*
X-6636Y-125367D01*
X-5151Y-124917D02*
X-5207Y-124805D01*
X-5376Y-124749D01*
X-5545D01*
X-5714Y-124805D01*
X-5770Y-124917D01*
X-5714Y-125030D01*
X-5601Y-125086D01*
X-5320Y-125142D01*
X-5207Y-125198D01*
X-5151Y-125311D01*
Y-125367D01*
X-5207Y-125480D01*
X-5376Y-125536D01*
X-5545D01*
X-5714Y-125480D01*
X-5770Y-125367D01*
X-4791Y-124355D02*
X-4735Y-124411D01*
X-4679Y-124355D01*
X-4735Y-124299D01*
X-4791Y-124355D01*
X-4735Y-124749D02*
Y-125536D01*
X-3796Y-124749D02*
Y-125648D01*
X-3852Y-125817D01*
X-3909Y-125873D01*
X-4021Y-125929D01*
X-4190D01*
X-4302Y-125873D01*
X-3796Y-124917D02*
X-3909Y-124805D01*
X-4021Y-124749D01*
X-4190D01*
X-4302Y-124805D01*
X-4415Y-124917D01*
X-4471Y-125086D01*
Y-125198D01*
X-4415Y-125367D01*
X-4302Y-125480D01*
X-4190Y-125536D01*
X-4021D01*
X-3909Y-125480D01*
X-3796Y-125367D01*
X-3481Y-124749D02*
Y-125536D01*
Y-124973D02*
X-3313Y-124805D01*
X-3200Y-124749D01*
X-3031D01*
X-2919Y-124805D01*
X-2863Y-124973D01*
Y-125536D01*
X-1626Y-124355D02*
Y-125536D01*
X-1063Y-124749D02*
X-1626Y-125311D01*
X-1401Y-125086D02*
X-1007Y-125536D01*
X-821Y-125086D02*
X-147D01*
Y-124973D01*
X-203Y-124861D01*
X-259Y-124805D01*
X-372Y-124749D01*
X-540D01*
X-653Y-124805D01*
X-765Y-124917D01*
X-821Y-125086D01*
Y-125198D01*
X-765Y-125367D01*
X-653Y-125480D01*
X-540Y-125536D01*
X-372D01*
X-259Y-125480D01*
X-147Y-125367D01*
X106Y-125086D02*
X781D01*
Y-124973D01*
X725Y-124861D01*
X669Y-124805D01*
X556Y-124749D01*
X387D01*
X275Y-124805D01*
X163Y-124917D01*
X106Y-125086D01*
Y-125198D01*
X163Y-125367D01*
X275Y-125480D01*
X387Y-125536D01*
X556D01*
X669Y-125480D01*
X781Y-125367D01*
X1034Y-124749D02*
Y-125929D01*
Y-124917D02*
X1147Y-124805D01*
X1259Y-124749D01*
X1428D01*
X1540Y-124805D01*
X1653Y-124917D01*
X1709Y-125086D01*
Y-125198D01*
X1653Y-125367D01*
X1540Y-125480D01*
X1428Y-125536D01*
X1259D01*
X1147Y-125480D01*
X1034Y-125367D01*
X1962Y-125030D02*
X2974D01*
X3604Y-124749D02*
X3491Y-124805D01*
X3379Y-124917D01*
X3323Y-125086D01*
Y-125198D01*
X3379Y-125367D01*
X3491Y-125480D01*
X3604Y-125536D01*
X3773D01*
X3885Y-125480D01*
X3997Y-125367D01*
X4054Y-125198D01*
Y-125086D01*
X3997Y-124917D01*
X3885Y-124805D01*
X3773Y-124749D01*
X3604D01*
X4312D02*
Y-125311D01*
X4369Y-125480D01*
X4481Y-125536D01*
X4650D01*
X4762Y-125480D01*
X4931Y-125311D01*
Y-124749D02*
Y-125536D01*
X5409Y-124355D02*
Y-125311D01*
X5465Y-125480D01*
X5578Y-125536D01*
X5690D01*
X5240Y-124749D02*
X5634D01*
X7461D02*
Y-125536D01*
Y-124917D02*
X7349Y-124805D01*
X7236Y-124749D01*
X7068D01*
X6955Y-124805D01*
X6843Y-124917D01*
X6786Y-125086D01*
Y-125198D01*
X6843Y-125367D01*
X6955Y-125480D01*
X7068Y-125536D01*
X7236D01*
X7349Y-125480D01*
X7461Y-125367D01*
X7776Y-124749D02*
Y-125536D01*
Y-125086D02*
X7832Y-124917D01*
X7945Y-124805D01*
X8057Y-124749D01*
X8226D01*
X8333Y-125086D02*
X9008D01*
Y-124973D01*
X8951Y-124861D01*
X8895Y-124805D01*
X8783Y-124749D01*
X8614D01*
X8502Y-124805D01*
X8389Y-124917D01*
X8333Y-125086D01*
Y-125198D01*
X8389Y-125367D01*
X8502Y-125480D01*
X8614Y-125536D01*
X8783D01*
X8895Y-125480D01*
X9008Y-125367D01*
X9935Y-124749D02*
Y-125536D01*
Y-124917D02*
X9823Y-124805D01*
X9710Y-124749D01*
X9542D01*
X9429Y-124805D01*
X9317Y-124917D01*
X9261Y-125086D01*
Y-125198D01*
X9317Y-125367D01*
X9429Y-125480D01*
X9542Y-125536D01*
X9710D01*
X9823Y-125480D01*
X9935Y-125367D01*
X11347Y-124355D02*
Y-125311D01*
X11403Y-125480D01*
X11515Y-125536D01*
X11628D01*
X11178Y-124749D02*
X11572D01*
X12078D02*
X11965Y-124805D01*
X11853Y-124917D01*
X11797Y-125086D01*
Y-125198D01*
X11853Y-125367D01*
X11965Y-125480D01*
X12078Y-125536D01*
X12246D01*
X12359Y-125480D01*
X12472Y-125367D01*
X12528Y-125198D01*
Y-125086D01*
X12472Y-124917D01*
X12359Y-124805D01*
X12246Y-124749D01*
X12078D01*
X14333Y-124917D02*
X14277Y-124805D01*
X14108Y-124749D01*
X13939D01*
X13770Y-124805D01*
X13714Y-124917D01*
X13770Y-125030D01*
X13883Y-125086D01*
X14164Y-125142D01*
X14277Y-125198D01*
X14333Y-125311D01*
Y-125367D01*
X14277Y-125480D01*
X14108Y-125536D01*
X13939D01*
X13770Y-125480D01*
X13714Y-125367D01*
X14580Y-124355D02*
Y-125536D01*
X15109Y-124749D02*
X14996Y-124805D01*
X14884Y-124917D01*
X14828Y-125086D01*
Y-125198D01*
X14884Y-125367D01*
X14996Y-125480D01*
X15109Y-125536D01*
X15277D01*
X15390Y-125480D01*
X15502Y-125367D01*
X15559Y-125198D01*
Y-125086D01*
X15502Y-124917D01*
X15390Y-124805D01*
X15277Y-124749D01*
X15109D01*
X15986Y-124355D02*
Y-125311D01*
X16042Y-125480D01*
X16155Y-125536D01*
X16267D01*
X15817Y-124749D02*
X16211D01*
X-6911Y-127504D02*
X-7361Y-126323D01*
X-7811Y-127504D01*
X-7642Y-127111D02*
X-7080D01*
X-6636Y-126323D02*
Y-127504D01*
X-6388Y-127055D02*
X-5714D01*
Y-126942D01*
X-5770Y-126830D01*
X-5826Y-126773D01*
X-5939Y-126717D01*
X-6107D01*
X-6220Y-126773D01*
X-6332Y-126886D01*
X-6388Y-127055D01*
Y-127167D01*
X-6332Y-127336D01*
X-6220Y-127448D01*
X-6107Y-127504D01*
X-5939D01*
X-5826Y-127448D01*
X-5714Y-127336D01*
X-5460Y-126717D02*
Y-127504D01*
Y-127055D02*
X-5404Y-126886D01*
X-5292Y-126773D01*
X-5179Y-126717D01*
X-5011D01*
X-4735Y-126323D02*
Y-127279D01*
X-4679Y-127448D01*
X-4566Y-127504D01*
X-4454D01*
X-4904Y-126717D02*
X-4510D01*
X-3357Y-126942D02*
X-2851D01*
X-2683Y-126886D01*
X-2627Y-126830D01*
X-2570Y-126717D01*
Y-126548D01*
X-2627Y-126436D01*
X-2683Y-126380D01*
X-2851Y-126323D01*
X-3357D01*
Y-127504D01*
X-1462Y-126605D02*
X-1519Y-126492D01*
X-1631Y-126380D01*
X-1744Y-126323D01*
X-1969D01*
X-2081Y-126380D01*
X-2193Y-126492D01*
X-2250Y-126605D01*
X-2306Y-126773D01*
Y-127055D01*
X-2250Y-127223D01*
X-2193Y-127336D01*
X-2081Y-127448D01*
X-1969Y-127504D01*
X-1744D01*
X-1631Y-127448D01*
X-1519Y-127336D01*
X-1462Y-127223D01*
X-1131Y-126323D02*
Y-127504D01*
Y-126323D02*
X-625D01*
X-456Y-126380D01*
X-400Y-126436D01*
X-344Y-126548D01*
Y-126661D01*
X-400Y-126773D01*
X-456Y-126830D01*
X-625Y-126886D01*
X-1131D02*
X-625D01*
X-456Y-126942D01*
X-400Y-126998D01*
X-344Y-127111D01*
Y-127279D01*
X-400Y-127392D01*
X-456Y-127448D01*
X-625Y-127504D01*
X-1131D01*
X1298Y-126323D02*
X1186D01*
X1073Y-126380D01*
X1017Y-126548D01*
Y-127504D01*
X849Y-126717D02*
X1242D01*
X2142D02*
Y-127504D01*
Y-126886D02*
X2029Y-126773D01*
X1917Y-126717D01*
X1748D01*
X1636Y-126773D01*
X1523Y-126886D01*
X1467Y-127055D01*
Y-127167D01*
X1523Y-127336D01*
X1636Y-127448D01*
X1748Y-127504D01*
X1917D01*
X2029Y-127448D01*
X2142Y-127336D01*
X2457Y-126323D02*
Y-127504D01*
Y-126886D02*
X2569Y-126773D01*
X2682Y-126717D01*
X2850D01*
X2963Y-126773D01*
X3075Y-126886D01*
X3131Y-127055D01*
Y-127167D01*
X3075Y-127336D01*
X2963Y-127448D01*
X2850Y-127504D01*
X2682D01*
X2569Y-127448D01*
X2457Y-127336D01*
X4481Y-126323D02*
Y-127279D01*
X4537Y-127448D01*
X4650Y-127504D01*
X4762D01*
X4312Y-126717D02*
X4706D01*
X5212D02*
X5100Y-126773D01*
X4987Y-126886D01*
X4931Y-127055D01*
Y-127167D01*
X4987Y-127336D01*
X5100Y-127448D01*
X5212Y-127504D01*
X5381D01*
X5493Y-127448D01*
X5606Y-127336D01*
X5662Y-127167D01*
Y-127055D01*
X5606Y-126886D01*
X5493Y-126773D01*
X5381Y-126717D01*
X5212D01*
X7467Y-126886D02*
X7411Y-126773D01*
X7242Y-126717D01*
X7073D01*
X6905Y-126773D01*
X6848Y-126886D01*
X6905Y-126998D01*
X7017Y-127055D01*
X7298Y-127111D01*
X7411Y-127167D01*
X7467Y-127279D01*
Y-127336D01*
X7411Y-127448D01*
X7242Y-127504D01*
X7073D01*
X6905Y-127448D01*
X6848Y-127336D01*
X7714Y-126323D02*
Y-127504D01*
X8243Y-126717D02*
X8130Y-126773D01*
X8018Y-126886D01*
X7962Y-127055D01*
Y-127167D01*
X8018Y-127336D01*
X8130Y-127448D01*
X8243Y-127504D01*
X8412D01*
X8524Y-127448D01*
X8636Y-127336D01*
X8693Y-127167D01*
Y-127055D01*
X8636Y-126886D01*
X8524Y-126773D01*
X8412Y-126717D01*
X8243D01*
X9120Y-126323D02*
Y-127279D01*
X9176Y-127448D01*
X9289Y-127504D01*
X9401D01*
X8951Y-126717D02*
X9345D01*
X11173Y-126323D02*
Y-127504D01*
Y-126886D02*
X11060Y-126773D01*
X10948Y-126717D01*
X10779D01*
X10667Y-126773D01*
X10554Y-126886D01*
X10498Y-127055D01*
Y-127167D01*
X10554Y-127336D01*
X10667Y-127448D01*
X10779Y-127504D01*
X10948D01*
X11060Y-127448D01*
X11173Y-127336D01*
X11487Y-127055D02*
X12162D01*
Y-126942D01*
X12106Y-126830D01*
X12050Y-126773D01*
X11937Y-126717D01*
X11769D01*
X11656Y-126773D01*
X11544Y-126886D01*
X11487Y-127055D01*
Y-127167D01*
X11544Y-127336D01*
X11656Y-127448D01*
X11769Y-127504D01*
X11937D01*
X12050Y-127448D01*
X12162Y-127336D01*
X12584Y-126323D02*
Y-127279D01*
X12640Y-127448D01*
X12753Y-127504D01*
X12865D01*
X12415Y-126717D02*
X12809D01*
X13709D02*
Y-127504D01*
Y-126886D02*
X13596Y-126773D01*
X13484Y-126717D01*
X13315D01*
X13203Y-126773D01*
X13090Y-126886D01*
X13034Y-127055D01*
Y-127167D01*
X13090Y-127336D01*
X13203Y-127448D01*
X13315Y-127504D01*
X13484D01*
X13596Y-127448D01*
X13709Y-127336D01*
X14136Y-126323D02*
X14192Y-126380D01*
X14248Y-126323D01*
X14192Y-126267D01*
X14136Y-126323D01*
X14192Y-126717D02*
Y-127504D01*
X14456Y-126323D02*
Y-127504D01*
X15322Y-126886D02*
X15266Y-126773D01*
X15098Y-126717D01*
X14929D01*
X14760Y-126773D01*
X14704Y-126886D01*
X14760Y-126998D01*
X14873Y-127055D01*
X15154Y-127111D01*
X15266Y-127167D01*
X15322Y-127279D01*
Y-127336D01*
X15266Y-127448D01*
X15098Y-127504D01*
X14929D01*
X14760Y-127448D01*
X14704Y-127336D01*
X11000Y-103436D02*
Y-99436D01*
X15000D01*
Y-103436D01*
X11000D01*
Y-93436D02*
Y-89436D01*
X15000D01*
Y-93436D01*
X11000D01*
X21000Y-53436D02*
Y-49436D01*
X25000D01*
Y-53436D01*
X21000D01*
X11000D02*
Y-49436D01*
X15000D01*
Y-53436D01*
X11000D01*
X21000Y-73436D02*
Y-69436D01*
X25000D01*
Y-73436D01*
X21000D01*
X11000Y-43336D02*
Y-39336D01*
X15000D01*
Y-43336D01*
X11000D01*
X21000Y-43436D02*
Y-39436D01*
X25000D01*
Y-43436D01*
X21000D01*
X11000Y-73436D02*
Y-69436D01*
X15000D01*
Y-73436D01*
X11000D01*
Y-83436D02*
Y-79436D01*
X15000D01*
Y-83436D01*
X11000D01*
X21000D02*
Y-79436D01*
X25000D01*
Y-83436D01*
X21000D01*
Y-63436D02*
Y-59436D01*
X25000D01*
Y-63436D01*
X21000D01*
X11000D02*
Y-59436D01*
X15000D01*
Y-63436D01*
X11000D01*
X21000Y-93436D02*
Y-89436D01*
X25000D01*
Y-93436D01*
X21000D01*
Y-103436D02*
Y-99436D01*
X25000D01*
Y-103436D01*
X21000D01*
X375953Y-242000D02*
Y-238000D01*
X379953D01*
Y-242000D01*
X375953D01*
Y-232000D02*
Y-228000D01*
X379953D01*
Y-232000D01*
X375953D01*
Y-302000D02*
Y-298000D01*
X379953D01*
Y-302000D01*
X375953D01*
Y-292000D02*
Y-288000D01*
X379953D01*
Y-292000D01*
X375953D01*
X283824Y-137782D02*
X281824Y-133782D01*
X285824D01*
X283824Y-137782D01*
X355576D02*
X353576Y-133782D01*
X357576D01*
X355576Y-137782D01*
X254689Y-15697D02*
X255689Y-14697D01*
X256689D01*
X255689Y-13697D01*
X256689Y-12697D01*
X255689D01*
X254689Y-11697D01*
X253689Y-12697D01*
X252689D01*
X253689Y-13697D01*
X252689Y-14697D01*
X253689D01*
X254689Y-15697D01*
X200000Y-93386D02*
Y-89386D01*
X204000D01*
Y-93386D01*
X200000D01*
X150000D02*
Y-89386D01*
X154000D01*
Y-93386D01*
X150000D01*
X100000D02*
Y-89386D01*
X104000D01*
Y-93386D01*
X100000D01*
X89311Y-15697D02*
X90311Y-14697D01*
X91311D01*
X90311Y-13697D01*
X91311Y-12697D01*
X90311D01*
X89311Y-11697D01*
X88311Y-12697D01*
X87311D01*
X88311Y-13697D01*
X87311Y-14697D01*
X88311D01*
X89311Y-15697D01*
X110000Y-93386D02*
Y-89386D01*
X114000D01*
Y-93386D01*
X110000D01*
X120000D02*
Y-89386D01*
X124000D01*
Y-93386D01*
X120000D01*
X130000D02*
Y-89386D01*
X134000D01*
Y-93386D01*
X130000D01*
X140000D02*
Y-89386D01*
X144000D01*
Y-93386D01*
X140000D01*
X160000D02*
Y-89386D01*
X164000D01*
Y-93386D01*
X160000D01*
X170000D02*
Y-89386D01*
X174000D01*
Y-93386D01*
X170000D01*
X180000D02*
Y-89386D01*
X184000D01*
Y-93386D01*
X180000D01*
X190000D02*
Y-89386D01*
X194000D01*
Y-93386D01*
X190000D01*
X210000D02*
Y-89386D01*
X214000D01*
Y-93386D01*
X210000D01*
X220000D02*
Y-89386D01*
X224000D01*
Y-93386D01*
X220000D01*
X230000D02*
Y-89386D01*
X234000D01*
Y-93386D01*
X230000D01*
X240000D02*
Y-89386D01*
X244000D01*
Y-93386D01*
X240000D01*
X375953Y-107000D02*
Y-103000D01*
X379953D01*
Y-107000D01*
X375953D01*
Y-97000D02*
Y-93000D01*
X379953D01*
Y-97000D01*
X375953D01*
X7874Y-328772D02*
X8874Y-327772D01*
X9874D01*
X8874Y-326772D01*
X9874Y-325772D01*
X8874D01*
X7874Y-324772D01*
X6874Y-325772D01*
X5874D01*
X6874Y-326772D01*
X5874Y-327772D01*
X6874D01*
X7874Y-328772D01*
X377953D02*
X378953Y-327772D01*
X379953D01*
X378953Y-326772D01*
X379953Y-325772D01*
X378953D01*
X377953Y-324772D01*
X376953Y-325772D01*
X375953D01*
X376953Y-326772D01*
X375953Y-327772D01*
X376953D01*
X377953Y-328772D01*
Y-9874D02*
X378953Y-8874D01*
X379953D01*
X378953Y-7874D01*
X379953Y-6874D01*
X378953D01*
X377953Y-5874D01*
X376953Y-6874D01*
X375953D01*
X376953Y-7874D01*
X375953Y-8874D01*
X376953D01*
X377953Y-9874D01*
X7874D02*
X8874Y-8874D01*
X9874D01*
X8874Y-7874D01*
X9874Y-6874D01*
X8874D01*
X7874Y-5874D01*
X6874Y-6874D01*
X5874D01*
X6874Y-7874D01*
X5874Y-8874D01*
X6874D01*
X7874Y-9874D01*
X17500Y-288000D02*
Y-284000D01*
X21500D01*
Y-288000D01*
X17500D01*
X339500Y-208886D02*
Y-204886D01*
X343500D01*
Y-208886D01*
X339500D01*
X220807Y-297394D02*
Y-293394D01*
X224807D01*
Y-297394D01*
X220807D01*
X176516Y-277394D02*
Y-273394D01*
X180516D01*
Y-277394D01*
X176516D01*
X220807Y-287394D02*
Y-283394D01*
X224807D01*
Y-287394D01*
X220807D01*
Y-277394D02*
Y-273394D01*
X224807D01*
Y-277394D01*
X220807D01*
X176516Y-287394D02*
Y-283394D01*
X180516D01*
Y-287394D01*
X176516D01*
Y-297394D02*
Y-293394D01*
X180516D01*
Y-297394D01*
X176516D01*
X4724Y-207906D02*
X5724Y-205906D01*
X4724Y-203906D01*
X6724Y-204906D01*
X8724Y-203906D01*
X7724Y-205906D01*
X8724Y-207906D01*
X6724Y-206906D01*
X4724Y-207906D01*
Y-196095D02*
X5724Y-194095D01*
X4724Y-192095D01*
X6724Y-193095D01*
X8724Y-192095D01*
X7724Y-194095D01*
X8724Y-196095D01*
X6724Y-195095D01*
X4724Y-196095D01*
X265000Y-164500D02*
Y-165500D01*
X267000D01*
Y-164500D01*
X268000D01*
Y-162500D01*
X267000D01*
Y-161500D01*
X265000D01*
Y-162500D01*
X264000D01*
Y-164500D01*
X265000D01*
X288000Y-223000D02*
Y-224000D01*
X290000D01*
Y-223000D01*
X291000D01*
Y-221000D01*
X290000D01*
Y-220000D01*
X288000D01*
Y-221000D01*
X287000D01*
Y-223000D01*
X288000D01*
X103500Y-207500D02*
Y-208500D01*
X105500D01*
Y-207500D01*
X106500D01*
Y-205500D01*
X105500D01*
Y-204500D01*
X103500D01*
Y-205500D01*
X102500D01*
Y-207500D01*
X103500D01*
X283000Y-289500D02*
Y-290500D01*
X285000D01*
Y-289500D01*
X286000D01*
Y-287500D01*
X285000D01*
Y-286500D01*
X283000D01*
Y-287500D01*
X282000D01*
Y-289500D01*
X283000D01*
X206000Y-225886D02*
Y-226886D01*
X208000D01*
Y-225886D01*
X209000D01*
Y-223886D01*
X208000D01*
Y-222886D01*
X206000D01*
Y-223886D01*
X205000D01*
Y-225886D01*
X206000D01*
X306500Y-115886D02*
Y-116886D01*
X308500D01*
Y-115886D01*
X309500D01*
Y-113886D01*
X308500D01*
Y-112886D01*
X306500D01*
Y-113886D01*
X305500D01*
Y-115886D01*
X306500D01*
X69000Y-86386D02*
Y-87386D01*
X71000D01*
Y-86386D01*
X72000D01*
Y-84386D01*
X71000D01*
Y-83386D01*
X69000D01*
Y-84386D01*
X68000D01*
Y-86386D01*
X69000D01*
X80000D02*
Y-87386D01*
X82000D01*
Y-86386D01*
X83000D01*
Y-84386D01*
X82000D01*
Y-83386D01*
X80000D01*
Y-84386D01*
X79000D01*
Y-86386D01*
X80000D01*
X121500Y-141886D02*
Y-142886D01*
X123500D01*
Y-141886D01*
X124500D01*
Y-139886D01*
X123500D01*
Y-138886D01*
X121500D01*
Y-139886D01*
X120500D01*
Y-141886D01*
X121500D01*
Y-148386D02*
Y-149386D01*
X123500D01*
Y-148386D01*
X124500D01*
Y-146386D01*
X123500D01*
Y-145386D01*
X121500D01*
Y-146386D01*
X120500D01*
Y-148386D01*
X121500D01*
X168000Y-182386D02*
Y-183386D01*
X170000D01*
Y-182386D01*
X171000D01*
Y-180386D01*
X170000D01*
Y-179386D01*
X168000D01*
Y-180386D01*
X167000D01*
Y-182386D01*
X168000D01*
X162000D02*
Y-183386D01*
X164000D01*
Y-182386D01*
X165000D01*
Y-180386D01*
X164000D01*
Y-179386D01*
X162000D01*
Y-180386D01*
X161000D01*
Y-182386D01*
X162000D01*
X36000Y-101386D02*
Y-102386D01*
X38000D01*
Y-101386D01*
X39000D01*
Y-99386D01*
X38000D01*
Y-98386D01*
X36000D01*
Y-99386D01*
X35000D01*
Y-101386D01*
X36000D01*
X78000Y-120386D02*
Y-121386D01*
X80000D01*
Y-120386D01*
X81000D01*
Y-118386D01*
X80000D01*
Y-117386D01*
X78000D01*
Y-118386D01*
X77000D01*
Y-120386D01*
X78000D01*
X70500Y-207500D02*
Y-208500D01*
X72500D01*
Y-207500D01*
X73500D01*
Y-205500D01*
X72500D01*
Y-204500D01*
X70500D01*
Y-205500D01*
X69500D01*
Y-207500D01*
X70500D01*
X185000Y-172886D02*
Y-173886D01*
X187000D01*
Y-172886D01*
X188000D01*
Y-170886D01*
X187000D01*
Y-169886D01*
X185000D01*
Y-170886D01*
X184000D01*
Y-172886D01*
X185000D01*
Y-178386D02*
Y-179386D01*
X187000D01*
Y-178386D01*
X188000D01*
Y-176386D01*
X187000D01*
Y-175386D01*
X185000D01*
Y-176386D01*
X184000D01*
Y-178386D01*
X185000D01*
X219000Y-124386D02*
Y-125386D01*
X221000D01*
Y-124386D01*
X222000D01*
Y-122386D01*
X221000D01*
Y-121386D01*
X219000D01*
Y-122386D01*
X218000D01*
Y-124386D01*
X219000D01*
X228500D02*
Y-125386D01*
X230500D01*
Y-124386D01*
X231500D01*
Y-122386D01*
X230500D01*
Y-121386D01*
X228500D01*
Y-122386D01*
X227500D01*
Y-124386D01*
X228500D01*
X256000Y-132386D02*
Y-133386D01*
X258000D01*
Y-132386D01*
X259000D01*
Y-130386D01*
X258000D01*
Y-129386D01*
X256000D01*
Y-130386D01*
X255000D01*
Y-132386D01*
X256000D01*
X183764Y-187870D02*
Y-188870D01*
X185764D01*
Y-187870D01*
X186764D01*
Y-185870D01*
X185764D01*
Y-184870D01*
X183764D01*
Y-185870D01*
X182764D01*
Y-187870D01*
X183764D01*
X212000Y-147386D02*
Y-148386D01*
X214000D01*
Y-147386D01*
X215000D01*
Y-145386D01*
X214000D01*
Y-144386D01*
X212000D01*
Y-145386D01*
X211000D01*
Y-147386D01*
X212000D01*
X243264Y-181150D02*
Y-182150D01*
X245264D01*
Y-181150D01*
X246264D01*
Y-179150D01*
X245264D01*
Y-178150D01*
X243264D01*
Y-179150D01*
X242264D01*
Y-181150D01*
X243264D01*
X171500Y-228886D02*
Y-229886D01*
X173500D01*
Y-228886D01*
X174500D01*
Y-226886D01*
X173500D01*
Y-225886D01*
X171500D01*
Y-226886D01*
X170500D01*
Y-228886D01*
X171500D01*
X243264Y-138650D02*
Y-139650D01*
X245264D01*
Y-138650D01*
X246264D01*
Y-136650D01*
X245264D01*
Y-135650D01*
X243264D01*
Y-136650D01*
X242264D01*
Y-138650D01*
X243264D01*
X322000Y-128386D02*
Y-129386D01*
X324000D01*
Y-128386D01*
X325000D01*
Y-126386D01*
X324000D01*
Y-125386D01*
X322000D01*
Y-126386D01*
X321000D01*
Y-128386D01*
X322000D01*
X26000Y-203756D02*
Y-204756D01*
X28000D01*
Y-203756D01*
X29000D01*
Y-201756D01*
X28000D01*
Y-200756D01*
X26000D01*
Y-201756D01*
X25000D01*
Y-203756D01*
X26000D01*
X47000Y-218760D02*
Y-219760D01*
X49000D01*
Y-218760D01*
X50000D01*
Y-216760D01*
X49000D01*
Y-215760D01*
X47000D01*
Y-216760D01*
X46000D01*
Y-218760D01*
X47000D01*
X66000Y-251386D02*
Y-252386D01*
X68000D01*
Y-251386D01*
X69000D01*
Y-249386D01*
X68000D01*
Y-248386D01*
X66000D01*
Y-249386D01*
X65000D01*
Y-251386D01*
X66000D01*
D13*
X21500Y-242386D02*
G03*
X21500Y-242386I-2000J0D01*
G01*
Y-250260D02*
G03*
X21500Y-250260I-2000J0D01*
G01*
X22591Y-147449D02*
G03*
X22591Y-147449I-2000J0D01*
G01*
Y-155323D02*
G03*
X22591Y-155323I-2000J0D01*
G01*
X30465Y-171071D02*
G03*
X30465Y-171071I-2000J0D01*
G01*
X38339D02*
G03*
X38339Y-171071I-2000J0D01*
G01*
X47000Y-146465D02*
G03*
X47000Y-146465I-2000J0D01*
G01*
Y-156307D02*
G03*
X47000Y-156307I-2000J0D01*
G01*
M02*
