%FSLAX25Y25*%
%MOIN*%
G70*
G01*
G75*
%ADD10C,0.00600*%
%ADD11C,0.00591*%
%ADD12C,0.00118*%
%ADD13C,0.00667*%
D10*
X20591Y-155323D02*
Y-147449D01*
X28465Y-171071D02*
X36339D01*
X45000Y-156307D02*
Y-146465D01*
D11*
X0Y-334646D02*
X385827D01*
X0D02*
Y0D01*
X385827D01*
Y-334646D02*
Y0D01*
D12*
X-7811Y-130261D02*
Y-131441D01*
Y-130261D02*
X-7361Y-131441D01*
X-6911Y-130261D02*
X-7361Y-131441D01*
X-6911Y-130261D02*
Y-131441D01*
X-6574Y-130991D02*
X-5899D01*
Y-130879D01*
X-5955Y-130767D01*
X-6012Y-130710D01*
X-6124Y-130654D01*
X-6293D01*
X-6405Y-130710D01*
X-6518Y-130823D01*
X-6574Y-130991D01*
Y-131104D01*
X-6518Y-131273D01*
X-6405Y-131385D01*
X-6293Y-131441D01*
X-6124D01*
X-6012Y-131385D01*
X-5899Y-131273D01*
X-4971Y-130823D02*
X-5084Y-130710D01*
X-5196Y-130654D01*
X-5365D01*
X-5477Y-130710D01*
X-5590Y-130823D01*
X-5646Y-130991D01*
Y-131104D01*
X-5590Y-131273D01*
X-5477Y-131385D01*
X-5365Y-131441D01*
X-5196D01*
X-5084Y-131385D01*
X-4971Y-131273D01*
X-4718Y-130261D02*
Y-131441D01*
Y-130879D02*
X-4550Y-130710D01*
X-4437Y-130654D01*
X-4268D01*
X-4156Y-130710D01*
X-4100Y-130879D01*
Y-131441D01*
X-2806Y-130542D02*
Y-130485D01*
X-2750Y-130373D01*
X-2694Y-130317D01*
X-2582Y-130261D01*
X-2357D01*
X-2244Y-130317D01*
X-2188Y-130373D01*
X-2132Y-130485D01*
Y-130598D01*
X-2188Y-130710D01*
X-2300Y-130879D01*
X-2863Y-131441D01*
X-2076D01*
X-883Y-130935D02*
X129D01*
X2249Y-130542D02*
X2193Y-130429D01*
X2080Y-130317D01*
X1968Y-130261D01*
X1743D01*
X1630Y-130317D01*
X1518Y-130429D01*
X1462Y-130542D01*
X1405Y-130710D01*
Y-130991D01*
X1462Y-131160D01*
X1518Y-131273D01*
X1630Y-131385D01*
X1743Y-131441D01*
X1968D01*
X2080Y-131385D01*
X2193Y-131273D01*
X2249Y-131160D01*
X2581Y-130261D02*
Y-131441D01*
X2828Y-130991D02*
X3503D01*
Y-130879D01*
X3446Y-130767D01*
X3390Y-130710D01*
X3278Y-130654D01*
X3109D01*
X2997Y-130710D01*
X2884Y-130823D01*
X2828Y-130991D01*
Y-131104D01*
X2884Y-131273D01*
X2997Y-131385D01*
X3109Y-131441D01*
X3278D01*
X3390Y-131385D01*
X3503Y-131273D01*
X4431Y-130654D02*
Y-131441D01*
Y-130823D02*
X4318Y-130710D01*
X4206Y-130654D01*
X4037D01*
X3924Y-130710D01*
X3812Y-130823D01*
X3756Y-130991D01*
Y-131104D01*
X3812Y-131273D01*
X3924Y-131385D01*
X4037Y-131441D01*
X4206D01*
X4318Y-131385D01*
X4431Y-131273D01*
X4745Y-130654D02*
Y-131441D01*
Y-130991D02*
X4802Y-130823D01*
X4914Y-130710D01*
X5026Y-130654D01*
X5195D01*
X5977D02*
Y-131441D01*
Y-130823D02*
X5864Y-130710D01*
X5752Y-130654D01*
X5583D01*
X5471Y-130710D01*
X5358Y-130823D01*
X5302Y-130991D01*
Y-131104D01*
X5358Y-131273D01*
X5471Y-131385D01*
X5583Y-131441D01*
X5752D01*
X5864Y-131385D01*
X5977Y-131273D01*
X6292Y-130654D02*
Y-131441D01*
Y-130879D02*
X6460Y-130710D01*
X6573Y-130654D01*
X6741D01*
X6854Y-130710D01*
X6910Y-130879D01*
Y-131441D01*
X7894Y-130823D02*
X7782Y-130710D01*
X7669Y-130654D01*
X7501D01*
X7388Y-130710D01*
X7276Y-130823D01*
X7220Y-130991D01*
Y-131104D01*
X7276Y-131273D01*
X7388Y-131385D01*
X7501Y-131441D01*
X7669D01*
X7782Y-131385D01*
X7894Y-131273D01*
X8147Y-130991D02*
X8822D01*
Y-130879D01*
X8766Y-130767D01*
X8710Y-130710D01*
X8597Y-130654D01*
X8428D01*
X8316Y-130710D01*
X8203Y-130823D01*
X8147Y-130991D01*
Y-131104D01*
X8203Y-131273D01*
X8316Y-131385D01*
X8428Y-131441D01*
X8597D01*
X8710Y-131385D01*
X8822Y-131273D01*
X9188Y-131385D02*
X9131Y-131441D01*
X9075Y-131385D01*
X9131Y-131329D01*
X9188Y-131385D01*
Y-131498D01*
X9131Y-131610D01*
X9075Y-131666D01*
X10374Y-130654D02*
Y-131441D01*
Y-130879D02*
X10543Y-130710D01*
X10655Y-130654D01*
X10824D01*
X10936Y-130710D01*
X10993Y-130879D01*
Y-131441D01*
Y-130879D02*
X11161Y-130710D01*
X11274Y-130654D01*
X11442D01*
X11555Y-130710D01*
X11611Y-130879D01*
Y-131441D01*
X12263Y-130654D02*
X12151Y-130710D01*
X12038Y-130823D01*
X11982Y-130991D01*
Y-131104D01*
X12038Y-131273D01*
X12151Y-131385D01*
X12263Y-131441D01*
X12432D01*
X12545Y-131385D01*
X12657Y-131273D01*
X12713Y-131104D01*
Y-130991D01*
X12657Y-130823D01*
X12545Y-130710D01*
X12432Y-130654D01*
X12263D01*
X12972D02*
X13309Y-131441D01*
X13647Y-130654D02*
X13309Y-131441D01*
X13838Y-130991D02*
X14513D01*
Y-130879D01*
X14456Y-130767D01*
X14400Y-130710D01*
X14288Y-130654D01*
X14119D01*
X14007Y-130710D01*
X13894Y-130823D01*
X13838Y-130991D01*
Y-131104D01*
X13894Y-131273D01*
X14007Y-131385D01*
X14119Y-131441D01*
X14288D01*
X14400Y-131385D01*
X14513Y-131273D01*
X15862Y-130261D02*
Y-131216D01*
X15918Y-131385D01*
X16031Y-131441D01*
X16143D01*
X15694Y-130654D02*
X16087D01*
X16593D02*
X16481Y-130710D01*
X16368Y-130823D01*
X16312Y-130991D01*
Y-131104D01*
X16368Y-131273D01*
X16481Y-131385D01*
X16593Y-131441D01*
X16762D01*
X16874Y-131385D01*
X16987Y-131273D01*
X17043Y-131104D01*
Y-130991D01*
X16987Y-130823D01*
X16874Y-130710D01*
X16762Y-130654D01*
X16593D01*
X18342Y-130261D02*
X18398Y-130317D01*
X18454Y-130261D01*
X18398Y-130204D01*
X18342Y-130261D01*
X18398Y-130654D02*
Y-131441D01*
X18663Y-130654D02*
Y-131441D01*
Y-130879D02*
X18831Y-130710D01*
X18944Y-130654D01*
X19112D01*
X19225Y-130710D01*
X19281Y-130879D01*
Y-131441D01*
X19759Y-130261D02*
Y-131216D01*
X19815Y-131385D01*
X19928Y-131441D01*
X20040D01*
X19590Y-130654D02*
X19984D01*
X20209Y-130991D02*
X20884D01*
Y-130879D01*
X20827Y-130767D01*
X20771Y-130710D01*
X20659Y-130654D01*
X20490D01*
X20378Y-130710D01*
X20265Y-130823D01*
X20209Y-130991D01*
Y-131104D01*
X20265Y-131273D01*
X20378Y-131385D01*
X20490Y-131441D01*
X20659D01*
X20771Y-131385D01*
X20884Y-131273D01*
X21137Y-130654D02*
Y-131441D01*
Y-130991D02*
X21193Y-130823D01*
X21305Y-130710D01*
X21418Y-130654D01*
X21587D01*
X21693D02*
Y-131441D01*
Y-130879D02*
X21862Y-130710D01*
X21974Y-130654D01*
X22143D01*
X22256Y-130710D01*
X22312Y-130879D01*
Y-131441D01*
X23296Y-130654D02*
Y-131441D01*
Y-130823D02*
X23183Y-130710D01*
X23071Y-130654D01*
X22902D01*
X22790Y-130710D01*
X22677Y-130823D01*
X22621Y-130991D01*
Y-131104D01*
X22677Y-131273D01*
X22790Y-131385D01*
X22902Y-131441D01*
X23071D01*
X23183Y-131385D01*
X23296Y-131273D01*
X23611Y-130261D02*
Y-131441D01*
X24786Y-130654D02*
Y-131835D01*
Y-130823D02*
X24899Y-130710D01*
X25011Y-130654D01*
X25180D01*
X25292Y-130710D01*
X25405Y-130823D01*
X25461Y-130991D01*
Y-131104D01*
X25405Y-131273D01*
X25292Y-131385D01*
X25180Y-131441D01*
X25011D01*
X24899Y-131385D01*
X24786Y-131273D01*
X25714Y-130261D02*
Y-131441D01*
X26636Y-130654D02*
Y-131441D01*
Y-130823D02*
X26524Y-130710D01*
X26411Y-130654D01*
X26242D01*
X26130Y-130710D01*
X26017Y-130823D01*
X25961Y-130991D01*
Y-131104D01*
X26017Y-131273D01*
X26130Y-131385D01*
X26242Y-131441D01*
X26411D01*
X26524Y-131385D01*
X26636Y-131273D01*
X26951Y-130654D02*
Y-131441D01*
Y-130879D02*
X27120Y-130710D01*
X27232Y-130654D01*
X27401D01*
X27513Y-130710D01*
X27569Y-130879D01*
Y-131441D01*
X27879Y-130991D02*
X28554D01*
Y-130879D01*
X28497Y-130767D01*
X28441Y-130710D01*
X28329Y-130654D01*
X28160D01*
X28047Y-130710D01*
X27935Y-130823D01*
X27879Y-130991D01*
Y-131104D01*
X27935Y-131273D01*
X28047Y-131385D01*
X28160Y-131441D01*
X28329D01*
X28441Y-131385D01*
X28554Y-131273D01*
X29847Y-130261D02*
X29903Y-130317D01*
X29959Y-130261D01*
X29903Y-130204D01*
X29847Y-130261D01*
X29903Y-130654D02*
Y-131441D01*
X30617Y-130261D02*
X30505D01*
X30392Y-130317D01*
X30336Y-130485D01*
Y-131441D01*
X30167Y-130654D02*
X30561D01*
X31714D02*
Y-131835D01*
Y-130823D02*
X31826Y-130710D01*
X31939Y-130654D01*
X32107D01*
X32220Y-130710D01*
X32332Y-130823D01*
X32388Y-130991D01*
Y-131104D01*
X32332Y-131273D01*
X32220Y-131385D01*
X32107Y-131441D01*
X31939D01*
X31826Y-131385D01*
X31714Y-131273D01*
X32642Y-130654D02*
Y-131441D01*
Y-130991D02*
X32698Y-130823D01*
X32810Y-130710D01*
X32923Y-130654D01*
X33091D01*
X33198Y-130991D02*
X33873D01*
Y-130879D01*
X33817Y-130767D01*
X33760Y-130710D01*
X33648Y-130654D01*
X33479D01*
X33367Y-130710D01*
X33254Y-130823D01*
X33198Y-130991D01*
Y-131104D01*
X33254Y-131273D01*
X33367Y-131385D01*
X33479Y-131441D01*
X33648D01*
X33760Y-131385D01*
X33873Y-131273D01*
X34745Y-130823D02*
X34688Y-130710D01*
X34520Y-130654D01*
X34351D01*
X34182Y-130710D01*
X34126Y-130823D01*
X34182Y-130935D01*
X34295Y-130991D01*
X34576Y-131048D01*
X34688Y-131104D01*
X34745Y-131216D01*
Y-131273D01*
X34688Y-131385D01*
X34520Y-131441D01*
X34351D01*
X34182Y-131385D01*
X34126Y-131273D01*
X34992Y-130991D02*
X35667D01*
Y-130879D01*
X35610Y-130767D01*
X35554Y-130710D01*
X35442Y-130654D01*
X35273D01*
X35161Y-130710D01*
X35048Y-130823D01*
X34992Y-130991D01*
Y-131104D01*
X35048Y-131273D01*
X35161Y-131385D01*
X35273Y-131441D01*
X35442D01*
X35554Y-131385D01*
X35667Y-131273D01*
X35920Y-130654D02*
Y-131441D01*
Y-130879D02*
X36088Y-130710D01*
X36201Y-130654D01*
X36370D01*
X36482Y-130710D01*
X36538Y-130879D01*
Y-131441D01*
X37016Y-130261D02*
Y-131216D01*
X37073Y-131385D01*
X37185Y-131441D01*
X37297D01*
X36847Y-130654D02*
X37241D01*
X-7811Y-128292D02*
Y-129473D01*
Y-128292D02*
X-7361Y-129473D01*
X-6911Y-128292D02*
X-7361Y-129473D01*
X-6911Y-128292D02*
Y-129473D01*
X-6574Y-129023D02*
X-5899D01*
Y-128911D01*
X-5955Y-128798D01*
X-6012Y-128742D01*
X-6124Y-128686D01*
X-6293D01*
X-6405Y-128742D01*
X-6518Y-128854D01*
X-6574Y-129023D01*
Y-129135D01*
X-6518Y-129304D01*
X-6405Y-129417D01*
X-6293Y-129473D01*
X-6124D01*
X-6012Y-129417D01*
X-5899Y-129304D01*
X-4971Y-128854D02*
X-5084Y-128742D01*
X-5196Y-128686D01*
X-5365D01*
X-5477Y-128742D01*
X-5590Y-128854D01*
X-5646Y-129023D01*
Y-129135D01*
X-5590Y-129304D01*
X-5477Y-129417D01*
X-5365Y-129473D01*
X-5196D01*
X-5084Y-129417D01*
X-4971Y-129304D01*
X-4718Y-128292D02*
Y-129473D01*
Y-128911D02*
X-4550Y-128742D01*
X-4437Y-128686D01*
X-4268D01*
X-4156Y-128742D01*
X-4100Y-128911D01*
Y-129473D01*
X-2863Y-128517D02*
X-2750Y-128461D01*
X-2582Y-128292D01*
Y-129473D01*
X-1069Y-128967D02*
X-57D01*
X2007Y-128461D02*
X1894Y-128348D01*
X1726Y-128292D01*
X1501D01*
X1332Y-128348D01*
X1220Y-128461D01*
Y-128573D01*
X1276Y-128686D01*
X1332Y-128742D01*
X1445Y-128798D01*
X1782Y-128911D01*
X1894Y-128967D01*
X1951Y-129023D01*
X2007Y-129135D01*
Y-129304D01*
X1894Y-129417D01*
X1726Y-129473D01*
X1501D01*
X1332Y-129417D01*
X1220Y-129304D01*
X2271Y-128292D02*
Y-129473D01*
X2800Y-128686D02*
X2687Y-128742D01*
X2575Y-128854D01*
X2519Y-129023D01*
Y-129135D01*
X2575Y-129304D01*
X2687Y-129417D01*
X2800Y-129473D01*
X2968D01*
X3081Y-129417D01*
X3193Y-129304D01*
X3250Y-129135D01*
Y-129023D01*
X3193Y-128854D01*
X3081Y-128742D01*
X2968Y-128686D01*
X2800D01*
X3677Y-128292D02*
Y-129248D01*
X3733Y-129417D01*
X3846Y-129473D01*
X3958D01*
X3508Y-128686D02*
X3902D01*
X5729Y-128854D02*
X5617Y-128742D01*
X5505Y-128686D01*
X5336D01*
X5223Y-128742D01*
X5111Y-128854D01*
X5055Y-129023D01*
Y-129135D01*
X5111Y-129304D01*
X5223Y-129417D01*
X5336Y-129473D01*
X5505D01*
X5617Y-129417D01*
X5729Y-129304D01*
X5982Y-128686D02*
Y-129248D01*
X6039Y-129417D01*
X6151Y-129473D01*
X6320D01*
X6432Y-129417D01*
X6601Y-129248D01*
Y-128686D02*
Y-129473D01*
X7079Y-128292D02*
Y-129248D01*
X7135Y-129417D01*
X7248Y-129473D01*
X7360D01*
X6910Y-128686D02*
X7304D01*
X7529Y-128967D02*
X8541D01*
X9171Y-128686D02*
X9058Y-128742D01*
X8946Y-128854D01*
X8890Y-129023D01*
Y-129135D01*
X8946Y-129304D01*
X9058Y-129417D01*
X9171Y-129473D01*
X9339D01*
X9452Y-129417D01*
X9564Y-129304D01*
X9621Y-129135D01*
Y-129023D01*
X9564Y-128854D01*
X9452Y-128742D01*
X9339Y-128686D01*
X9171D01*
X9879D02*
Y-129248D01*
X9935Y-129417D01*
X10048Y-129473D01*
X10217D01*
X10329Y-129417D01*
X10498Y-129248D01*
Y-128686D02*
Y-129473D01*
X10976Y-128292D02*
Y-129248D01*
X11032Y-129417D01*
X11144Y-129473D01*
X11257D01*
X10807Y-128686D02*
X11201D01*
X-6911Y-125536D02*
X-7361Y-124355D01*
X-7811Y-125536D01*
X-7642Y-125142D02*
X-7080D01*
X-6017Y-124917D02*
X-6073Y-124805D01*
X-6242Y-124749D01*
X-6411D01*
X-6580Y-124805D01*
X-6636Y-124917D01*
X-6580Y-125030D01*
X-6467Y-125086D01*
X-6186Y-125142D01*
X-6073Y-125198D01*
X-6017Y-125311D01*
Y-125367D01*
X-6073Y-125480D01*
X-6242Y-125536D01*
X-6411D01*
X-6580Y-125480D01*
X-6636Y-125367D01*
X-5151Y-124917D02*
X-5207Y-124805D01*
X-5376Y-124749D01*
X-5545D01*
X-5714Y-124805D01*
X-5770Y-124917D01*
X-5714Y-125030D01*
X-5601Y-125086D01*
X-5320Y-125142D01*
X-5207Y-125198D01*
X-5151Y-125311D01*
Y-125367D01*
X-5207Y-125480D01*
X-5376Y-125536D01*
X-5545D01*
X-5714Y-125480D01*
X-5770Y-125367D01*
X-4791Y-124355D02*
X-4735Y-124411D01*
X-4679Y-124355D01*
X-4735Y-124299D01*
X-4791Y-124355D01*
X-4735Y-124749D02*
Y-125536D01*
X-3796Y-124749D02*
Y-125648D01*
X-3852Y-125817D01*
X-3909Y-125873D01*
X-4021Y-125929D01*
X-4190D01*
X-4302Y-125873D01*
X-3796Y-124917D02*
X-3909Y-124805D01*
X-4021Y-124749D01*
X-4190D01*
X-4302Y-124805D01*
X-4415Y-124917D01*
X-4471Y-125086D01*
Y-125198D01*
X-4415Y-125367D01*
X-4302Y-125480D01*
X-4190Y-125536D01*
X-4021D01*
X-3909Y-125480D01*
X-3796Y-125367D01*
X-3481Y-124749D02*
Y-125536D01*
Y-124973D02*
X-3313Y-124805D01*
X-3200Y-124749D01*
X-3031D01*
X-2919Y-124805D01*
X-2863Y-124973D01*
Y-125536D01*
X-1626Y-124355D02*
Y-125536D01*
X-1063Y-124749D02*
X-1626Y-125311D01*
X-1401Y-125086D02*
X-1007Y-125536D01*
X-821Y-125086D02*
X-147D01*
Y-124973D01*
X-203Y-124861D01*
X-259Y-124805D01*
X-372Y-124749D01*
X-540D01*
X-653Y-124805D01*
X-765Y-124917D01*
X-821Y-125086D01*
Y-125198D01*
X-765Y-125367D01*
X-653Y-125480D01*
X-540Y-125536D01*
X-372D01*
X-259Y-125480D01*
X-147Y-125367D01*
X106Y-125086D02*
X781D01*
Y-124973D01*
X725Y-124861D01*
X669Y-124805D01*
X556Y-124749D01*
X387D01*
X275Y-124805D01*
X163Y-124917D01*
X106Y-125086D01*
Y-125198D01*
X163Y-125367D01*
X275Y-125480D01*
X387Y-125536D01*
X556D01*
X669Y-125480D01*
X781Y-125367D01*
X1034Y-124749D02*
Y-125929D01*
Y-124917D02*
X1147Y-124805D01*
X1259Y-124749D01*
X1428D01*
X1540Y-124805D01*
X1653Y-124917D01*
X1709Y-125086D01*
Y-125198D01*
X1653Y-125367D01*
X1540Y-125480D01*
X1428Y-125536D01*
X1259D01*
X1147Y-125480D01*
X1034Y-125367D01*
X1962Y-125030D02*
X2974D01*
X3604Y-124749D02*
X3491Y-124805D01*
X3379Y-124917D01*
X3323Y-125086D01*
Y-125198D01*
X3379Y-125367D01*
X3491Y-125480D01*
X3604Y-125536D01*
X3773D01*
X3885Y-125480D01*
X3997Y-125367D01*
X4054Y-125198D01*
Y-125086D01*
X3997Y-124917D01*
X3885Y-124805D01*
X3773Y-124749D01*
X3604D01*
X4312D02*
Y-125311D01*
X4369Y-125480D01*
X4481Y-125536D01*
X4650D01*
X4762Y-125480D01*
X4931Y-125311D01*
Y-124749D02*
Y-125536D01*
X5409Y-124355D02*
Y-125311D01*
X5465Y-125480D01*
X5578Y-125536D01*
X5690D01*
X5240Y-124749D02*
X5634D01*
X7461D02*
Y-125536D01*
Y-124917D02*
X7349Y-124805D01*
X7236Y-124749D01*
X7068D01*
X6955Y-124805D01*
X6843Y-124917D01*
X6786Y-125086D01*
Y-125198D01*
X6843Y-125367D01*
X6955Y-125480D01*
X7068Y-125536D01*
X7236D01*
X7349Y-125480D01*
X7461Y-125367D01*
X7776Y-124749D02*
Y-125536D01*
Y-125086D02*
X7832Y-124917D01*
X7945Y-124805D01*
X8057Y-124749D01*
X8226D01*
X8333Y-125086D02*
X9008D01*
Y-124973D01*
X8951Y-124861D01*
X8895Y-124805D01*
X8783Y-124749D01*
X8614D01*
X8502Y-124805D01*
X8389Y-124917D01*
X8333Y-125086D01*
Y-125198D01*
X8389Y-125367D01*
X8502Y-125480D01*
X8614Y-125536D01*
X8783D01*
X8895Y-125480D01*
X9008Y-125367D01*
X9935Y-124749D02*
Y-125536D01*
Y-124917D02*
X9823Y-124805D01*
X9710Y-124749D01*
X9542D01*
X9429Y-124805D01*
X9317Y-124917D01*
X9261Y-125086D01*
Y-125198D01*
X9317Y-125367D01*
X9429Y-125480D01*
X9542Y-125536D01*
X9710D01*
X9823Y-125480D01*
X9935Y-125367D01*
X11347Y-124355D02*
Y-125311D01*
X11403Y-125480D01*
X11515Y-125536D01*
X11628D01*
X11178Y-124749D02*
X11572D01*
X12078D02*
X11965Y-124805D01*
X11853Y-124917D01*
X11797Y-125086D01*
Y-125198D01*
X11853Y-125367D01*
X11965Y-125480D01*
X12078Y-125536D01*
X12246D01*
X12359Y-125480D01*
X12472Y-125367D01*
X12528Y-125198D01*
Y-125086D01*
X12472Y-124917D01*
X12359Y-124805D01*
X12246Y-124749D01*
X12078D01*
X14333Y-124917D02*
X14277Y-124805D01*
X14108Y-124749D01*
X13939D01*
X13770Y-124805D01*
X13714Y-124917D01*
X13770Y-125030D01*
X13883Y-125086D01*
X14164Y-125142D01*
X14277Y-125198D01*
X14333Y-125311D01*
Y-125367D01*
X14277Y-125480D01*
X14108Y-125536D01*
X13939D01*
X13770Y-125480D01*
X13714Y-125367D01*
X14580Y-124355D02*
Y-125536D01*
X15109Y-124749D02*
X14996Y-124805D01*
X14884Y-124917D01*
X14828Y-125086D01*
Y-125198D01*
X14884Y-125367D01*
X14996Y-125480D01*
X15109Y-125536D01*
X15277D01*
X15390Y-125480D01*
X15502Y-125367D01*
X15559Y-125198D01*
Y-125086D01*
X15502Y-124917D01*
X15390Y-124805D01*
X15277Y-124749D01*
X15109D01*
X15986Y-124355D02*
Y-125311D01*
X16042Y-125480D01*
X16155Y-125536D01*
X16267D01*
X15817Y-124749D02*
X16211D01*
X-6911Y-127504D02*
X-7361Y-126323D01*
X-7811Y-127504D01*
X-7642Y-127111D02*
X-7080D01*
X-6636Y-126323D02*
Y-127504D01*
X-6388Y-127055D02*
X-5714D01*
Y-126942D01*
X-5770Y-126830D01*
X-5826Y-126773D01*
X-5939Y-126717D01*
X-6107D01*
X-6220Y-126773D01*
X-6332Y-126886D01*
X-6388Y-127055D01*
Y-127167D01*
X-6332Y-127336D01*
X-6220Y-127448D01*
X-6107Y-127504D01*
X-5939D01*
X-5826Y-127448D01*
X-5714Y-127336D01*
X-5460Y-126717D02*
Y-127504D01*
Y-127055D02*
X-5404Y-126886D01*
X-5292Y-126773D01*
X-5179Y-126717D01*
X-5011D01*
X-4735Y-126323D02*
Y-127279D01*
X-4679Y-127448D01*
X-4566Y-127504D01*
X-4454D01*
X-4904Y-126717D02*
X-4510D01*
X-3357Y-126942D02*
X-2851D01*
X-2683Y-126886D01*
X-2627Y-126830D01*
X-2570Y-126717D01*
Y-126548D01*
X-2627Y-126436D01*
X-2683Y-126380D01*
X-2851Y-126323D01*
X-3357D01*
Y-127504D01*
X-1462Y-126605D02*
X-1519Y-126492D01*
X-1631Y-126380D01*
X-1744Y-126323D01*
X-1969D01*
X-2081Y-126380D01*
X-2193Y-126492D01*
X-2250Y-126605D01*
X-2306Y-126773D01*
Y-127055D01*
X-2250Y-127223D01*
X-2193Y-127336D01*
X-2081Y-127448D01*
X-1969Y-127504D01*
X-1744D01*
X-1631Y-127448D01*
X-1519Y-127336D01*
X-1462Y-127223D01*
X-1131Y-126323D02*
Y-127504D01*
Y-126323D02*
X-625D01*
X-456Y-126380D01*
X-400Y-126436D01*
X-344Y-126548D01*
Y-126661D01*
X-400Y-126773D01*
X-456Y-126830D01*
X-625Y-126886D01*
X-1131D02*
X-625D01*
X-456Y-126942D01*
X-400Y-126998D01*
X-344Y-127111D01*
Y-127279D01*
X-400Y-127392D01*
X-456Y-127448D01*
X-625Y-127504D01*
X-1131D01*
X1298Y-126323D02*
X1186D01*
X1073Y-126380D01*
X1017Y-126548D01*
Y-127504D01*
X849Y-126717D02*
X1242D01*
X2142D02*
Y-127504D01*
Y-126886D02*
X2029Y-126773D01*
X1917Y-126717D01*
X1748D01*
X1636Y-126773D01*
X1523Y-126886D01*
X1467Y-127055D01*
Y-127167D01*
X1523Y-127336D01*
X1636Y-127448D01*
X1748Y-127504D01*
X1917D01*
X2029Y-127448D01*
X2142Y-127336D01*
X2457Y-126323D02*
Y-127504D01*
Y-126886D02*
X2569Y-126773D01*
X2682Y-126717D01*
X2850D01*
X2963Y-126773D01*
X3075Y-126886D01*
X3131Y-127055D01*
Y-127167D01*
X3075Y-127336D01*
X2963Y-127448D01*
X2850Y-127504D01*
X2682D01*
X2569Y-127448D01*
X2457Y-127336D01*
X4481Y-126323D02*
Y-127279D01*
X4537Y-127448D01*
X4650Y-127504D01*
X4762D01*
X4312Y-126717D02*
X4706D01*
X5212D02*
X5100Y-126773D01*
X4987Y-126886D01*
X4931Y-127055D01*
Y-127167D01*
X4987Y-127336D01*
X5100Y-127448D01*
X5212Y-127504D01*
X5381D01*
X5493Y-127448D01*
X5606Y-127336D01*
X5662Y-127167D01*
Y-127055D01*
X5606Y-126886D01*
X5493Y-126773D01*
X5381Y-126717D01*
X5212D01*
X7467Y-126886D02*
X7411Y-126773D01*
X7242Y-126717D01*
X7073D01*
X6905Y-126773D01*
X6848Y-126886D01*
X6905Y-126998D01*
X7017Y-127055D01*
X7298Y-127111D01*
X7411Y-127167D01*
X7467Y-127279D01*
Y-127336D01*
X7411Y-127448D01*
X7242Y-127504D01*
X7073D01*
X6905Y-127448D01*
X6848Y-127336D01*
X7714Y-126323D02*
Y-127504D01*
X8243Y-126717D02*
X8130Y-126773D01*
X8018Y-126886D01*
X7962Y-127055D01*
Y-127167D01*
X8018Y-127336D01*
X8130Y-127448D01*
X8243Y-127504D01*
X8412D01*
X8524Y-127448D01*
X8636Y-127336D01*
X8693Y-127167D01*
Y-127055D01*
X8636Y-126886D01*
X8524Y-126773D01*
X8412Y-126717D01*
X8243D01*
X9120Y-126323D02*
Y-127279D01*
X9176Y-127448D01*
X9289Y-127504D01*
X9401D01*
X8951Y-126717D02*
X9345D01*
X11173Y-126323D02*
Y-127504D01*
Y-126886D02*
X11060Y-126773D01*
X10948Y-126717D01*
X10779D01*
X10667Y-126773D01*
X10554Y-126886D01*
X10498Y-127055D01*
Y-127167D01*
X10554Y-127336D01*
X10667Y-127448D01*
X10779Y-127504D01*
X10948D01*
X11060Y-127448D01*
X11173Y-127336D01*
X11487Y-127055D02*
X12162D01*
Y-126942D01*
X12106Y-126830D01*
X12050Y-126773D01*
X11937Y-126717D01*
X11769D01*
X11656Y-126773D01*
X11544Y-126886D01*
X11487Y-127055D01*
Y-127167D01*
X11544Y-127336D01*
X11656Y-127448D01*
X11769Y-127504D01*
X11937D01*
X12050Y-127448D01*
X12162Y-127336D01*
X12584Y-126323D02*
Y-127279D01*
X12640Y-127448D01*
X12753Y-127504D01*
X12865D01*
X12415Y-126717D02*
X12809D01*
X13709D02*
Y-127504D01*
Y-126886D02*
X13596Y-126773D01*
X13484Y-126717D01*
X13315D01*
X13203Y-126773D01*
X13090Y-126886D01*
X13034Y-127055D01*
Y-127167D01*
X13090Y-127336D01*
X13203Y-127448D01*
X13315Y-127504D01*
X13484D01*
X13596Y-127448D01*
X13709Y-127336D01*
X14136Y-126323D02*
X14192Y-126380D01*
X14248Y-126323D01*
X14192Y-126267D01*
X14136Y-126323D01*
X14192Y-126717D02*
Y-127504D01*
X14456Y-126323D02*
Y-127504D01*
X15322Y-126886D02*
X15266Y-126773D01*
X15098Y-126717D01*
X14929D01*
X14760Y-126773D01*
X14704Y-126886D01*
X14760Y-126998D01*
X14873Y-127055D01*
X15154Y-127111D01*
X15266Y-127167D01*
X15322Y-127279D01*
Y-127336D01*
X15266Y-127448D01*
X15098Y-127504D01*
X14929D01*
X14760Y-127448D01*
X14704Y-127336D01*
X11228Y-101436D02*
X14772D01*
X13000Y-103208D02*
Y-99664D01*
X11228Y-91436D02*
X14772D01*
X13000Y-93208D02*
Y-89664D01*
X21228Y-51436D02*
X24772D01*
X23000Y-53207D02*
Y-49664D01*
X11228Y-51436D02*
X14772D01*
X13000Y-53207D02*
Y-49664D01*
X21228Y-71436D02*
X24772D01*
X23000Y-73207D02*
Y-69664D01*
X11228Y-41336D02*
X14772D01*
X13000Y-43108D02*
Y-39564D01*
X21228Y-41436D02*
X24772D01*
X23000Y-43207D02*
Y-39664D01*
X11228Y-71436D02*
X14772D01*
X13000Y-73207D02*
Y-69664D01*
X11228Y-81436D02*
X14772D01*
X13000Y-83207D02*
Y-79664D01*
X21228Y-81436D02*
X24772D01*
X23000Y-83207D02*
Y-79664D01*
X21228Y-61436D02*
X24772D01*
X23000Y-63208D02*
Y-59664D01*
X11228Y-61436D02*
X14772D01*
X13000Y-63208D02*
Y-59664D01*
X21228Y-91436D02*
X24772D01*
X23000Y-93208D02*
Y-89664D01*
X21228Y-101436D02*
X24772D01*
X23000Y-103208D02*
Y-99664D01*
X17531Y-242386D02*
X21468D01*
X19500Y-244354D02*
Y-240417D01*
X17531Y-250260D02*
X21468D01*
X19500Y-252228D02*
Y-248291D01*
X376181Y-240000D02*
X379724D01*
X377953Y-241772D02*
Y-238228D01*
X376181Y-230000D02*
X379724D01*
X377953Y-231772D02*
Y-228228D01*
X376181Y-300000D02*
X379724D01*
X377953Y-301772D02*
Y-298228D01*
X376181Y-290000D02*
X379724D01*
X377953Y-291772D02*
Y-288228D01*
X278312Y-135782D02*
X289336D01*
X283824Y-141294D02*
Y-130270D01*
X350064Y-135782D02*
X361088D01*
X355576Y-141294D02*
Y-130270D01*
X248783Y-13697D02*
X260595D01*
X254689Y-19602D02*
Y-7791D01*
X200228Y-91386D02*
X203772D01*
X202000Y-93158D02*
Y-89614D01*
X150228Y-91386D02*
X153772D01*
X152000Y-93158D02*
Y-89614D01*
X100228Y-91386D02*
X103772D01*
X102000Y-93158D02*
Y-89614D01*
X83406Y-13697D02*
X95217D01*
X89311Y-19602D02*
Y-7791D01*
X110228Y-91386D02*
X113772D01*
X112000Y-93158D02*
Y-89614D01*
X120228Y-91386D02*
X123772D01*
X122000Y-93158D02*
Y-89614D01*
X130228Y-91386D02*
X133772D01*
X132000Y-93158D02*
Y-89614D01*
X140228Y-91386D02*
X143772D01*
X142000Y-93158D02*
Y-89614D01*
X160228Y-91386D02*
X163772D01*
X162000Y-93158D02*
Y-89614D01*
X170228Y-91386D02*
X173772D01*
X172000Y-93158D02*
Y-89614D01*
X180228Y-91386D02*
X183772D01*
X182000Y-93158D02*
Y-89614D01*
X190228Y-91386D02*
X193772D01*
X192000Y-93158D02*
Y-89614D01*
X210228Y-91386D02*
X213772D01*
X212000Y-93158D02*
Y-89614D01*
X220228Y-91386D02*
X223772D01*
X222000Y-93158D02*
Y-89614D01*
X230228Y-91386D02*
X233772D01*
X232000Y-93158D02*
Y-89614D01*
X240228Y-91386D02*
X243772D01*
X242000Y-93158D02*
Y-89614D01*
X376181Y-105000D02*
X379724D01*
X377953Y-106772D02*
Y-103228D01*
X376181Y-95000D02*
X379724D01*
X377953Y-96772D02*
Y-93228D01*
X1969Y-326772D02*
X13780D01*
X7874Y-332677D02*
Y-320866D01*
X372047Y-326772D02*
X383858D01*
X377953Y-332677D02*
Y-320866D01*
X372047Y-7874D02*
X383858D01*
X377953Y-13780D02*
Y-1969D01*
X1969Y-7874D02*
X13780D01*
X7874Y-13780D02*
Y-1969D01*
X17728Y-286000D02*
X21272D01*
X19500Y-287772D02*
Y-284228D01*
X339728Y-206886D02*
X343272D01*
X341500Y-208658D02*
Y-205114D01*
X18622Y-147449D02*
X22559D01*
X20591Y-149417D02*
Y-145480D01*
X18622Y-155323D02*
X22559D01*
X20591Y-157291D02*
Y-153354D01*
X26496Y-171071D02*
X30433D01*
X28465Y-173039D02*
Y-169102D01*
X34370Y-171071D02*
X38307D01*
X36339Y-173039D02*
Y-169102D01*
X43031Y-146465D02*
X46968D01*
X45000Y-148433D02*
Y-144496D01*
X43031Y-156307D02*
X46968D01*
X45000Y-158276D02*
Y-154339D01*
X221035Y-295394D02*
X224579D01*
X222807Y-297165D02*
Y-293622D01*
X176744Y-275394D02*
X180287D01*
X178516Y-277165D02*
Y-273622D01*
X221035Y-285394D02*
X224579D01*
X222807Y-287165D02*
Y-283622D01*
X221035Y-275394D02*
X224579D01*
X222807Y-277165D02*
Y-273622D01*
X176744Y-285394D02*
X180287D01*
X178516Y-287165D02*
Y-283622D01*
X176744Y-295394D02*
X180287D01*
X178516Y-297165D02*
Y-293622D01*
X5150Y-205906D02*
X8299D01*
X6724Y-207480D02*
Y-204331D01*
X5150Y-194095D02*
X8299D01*
X6724Y-195669D02*
Y-192520D01*
X264721Y-163500D02*
X267280D01*
X266000Y-164779D02*
Y-162221D01*
X287720Y-222000D02*
X290280D01*
X289000Y-223280D02*
Y-220721D01*
X103220Y-206500D02*
X105780D01*
X104500Y-207780D02*
Y-205221D01*
X282720Y-288500D02*
X285279D01*
X284000Y-289779D02*
Y-287221D01*
X205720Y-224886D02*
X208279D01*
X207000Y-226165D02*
Y-223606D01*
X306221Y-114886D02*
X308780D01*
X307500Y-116165D02*
Y-113606D01*
X68721Y-85386D02*
X71280D01*
X70000Y-86665D02*
Y-84106D01*
X79720Y-85386D02*
X82279D01*
X81000Y-86665D02*
Y-84106D01*
X121221Y-140886D02*
X123779D01*
X122500Y-142165D02*
Y-139606D01*
X121221Y-147386D02*
X123779D01*
X122500Y-148665D02*
Y-146106D01*
X167720Y-181386D02*
X170280D01*
X169000Y-182665D02*
Y-180106D01*
X161721Y-181386D02*
X164279D01*
X163000Y-182665D02*
Y-180106D01*
X35721Y-100386D02*
X38280D01*
X37000Y-101665D02*
Y-99106D01*
X77720Y-119386D02*
X80279D01*
X79000Y-120665D02*
Y-118106D01*
X70221Y-206500D02*
X72780D01*
X71500Y-207780D02*
Y-205221D01*
X184721Y-171886D02*
X187279D01*
X186000Y-173165D02*
Y-170606D01*
X184721Y-177386D02*
X187279D01*
X186000Y-178665D02*
Y-176106D01*
X218721Y-123386D02*
X221280D01*
X220000Y-124665D02*
Y-122106D01*
X228221Y-123386D02*
X230780D01*
X229500Y-124665D02*
Y-122106D01*
X255720Y-131386D02*
X258279D01*
X257000Y-132665D02*
Y-130106D01*
X183484Y-186870D02*
X186043D01*
X184764Y-188150D02*
Y-185591D01*
X211720Y-146386D02*
X214280D01*
X213000Y-147665D02*
Y-145106D01*
X242984Y-180150D02*
X245543D01*
X244264Y-181429D02*
Y-178870D01*
X171221Y-227886D02*
X173779D01*
X172500Y-229165D02*
Y-226606D01*
X242984Y-137650D02*
X245543D01*
X244264Y-138929D02*
Y-136370D01*
X321721Y-127386D02*
X324279D01*
X323000Y-128665D02*
Y-126106D01*
X25721Y-202756D02*
X28280D01*
X27000Y-204035D02*
Y-201476D01*
X46720Y-217760D02*
X49279D01*
X48000Y-219039D02*
Y-216480D01*
X65720Y-250386D02*
X68279D01*
X67000Y-251665D02*
Y-249106D01*
M02*
